<svg width="31" height="25" viewBox="0 0 32 25" fill="currentColor" xmlns="http://www.w3.org/2000/svg"><path d="M4.308 15.093a2.344 2.344 0 0 0-.367-2.725c-1.039-1.094-1.595-2.407-1.595-3.774 0-3.1 3.115-6.25 7.812-6.25 4.698 0 7.813 3.15 7.813 6.25s-3.115 6.25-7.813 6.25c-.64 0-1.26-.064-1.845-.176a2.34 2.34 0 0 0-1.5.205c-.2.103-.405.2-.615.293-.78.352-1.606.66-2.436.879a19.26 19.26 0 0 0 .543-.952h.005zM0 8.593c.001 2.042.84 3.912 2.242 5.386-.044.083-.092.17-.136.249-.503.897-1.09 1.78-1.788 2.542a1.174 1.174 0 0 0 .855 1.978c2.1 0 4.224-.65 5.991-1.45.235-.108.469-.22.694-.332.737.146 1.508.22 2.3.22 5.61 0 10.156-3.848 10.156-8.594S15.768 0 10.157 0C4.547 0 .001 3.848.001 8.594zm21.095 14.844c.79 0 1.557-.078 2.3-.22.224.113.459.225.693.333 1.768.8 3.892 1.45 5.991 1.45a1.17 1.17 0 0 0 .849-1.973c-.695-.761-1.28-1.645-1.788-2.544-.044-.083-.093-.166-.137-.249 1.406-1.48 2.246-3.35 2.246-5.39.001-4.61-4.29-8.374-9.677-8.584.2.742.303 1.523.303 2.334v.03c4.258.326 7.031 3.295 7.031 6.22 0 1.367-.556 2.68-1.596 3.77a2.345 2.345 0 0 0-.366 2.724c.054.097.108.195.157.288.123.22.255.44.386.664-.83-.22-1.655-.522-2.436-.879-.21-.092-.415-.19-.615-.292a2.34 2.34 0 0 0-1.5-.205 9.466 9.466 0 0 1-1.845.176c-3.013-.001-5.371-1.295-6.68-3.043a13.47 13.47 0 0 1-2.441.576c1.654 2.852 5.12 4.815 9.125 4.815z" fill="current"/></svg>