<svg width="current" height="current" viewBox="0 0 126 32" fill="currentColor" xmlns="http://www.w3.org/2000/svg"><path d="M.914 7.773c1.75.063 3.11.094 4.078.094.969 0 2.328-.031 4.078-.094.032.125.047.211.047.258 0 .056-.015.154-.047.294a10.94 10.94 0 0 0-1.699.27c-.32.078-.565.191-.737.34a.68.68 0 0 0-.27.515 194.958 194.958 0 0 0-.152 7.417c0 1.18.044 3.653.13 7.418h3.62c1.15-.078 2.177-.246 3.083-.504.906-.257 1.66-.585 2.262-.983.61-.406 1.11-.824 1.5-1.254a7.258 7.258 0 0 0 1.03-1.465c.204.078.337.184.4.317-.32.593-.57 1.074-.75 1.44-.173.368-.364.853-.575 1.454a8.152 8.152 0 0 0-.398 1.71H6.34c-2.117 0-3.934.023-5.45.07a.77.77 0 0 1-.046-.234c0-.055.015-.16.047-.316.36-.032.65-.063.868-.094.226-.04.5-.098.82-.176.328-.078.578-.188.75-.328a.715.715 0 0 0 .27-.528c.093-2.445.14-4.91.14-7.394 0-2.531-.039-4.715-.117-6.55a.68.68 0 0 0-.268-.516c-.172-.149-.422-.262-.75-.34a8.393 8.393 0 0 0-.82-.164 10.14 10.14 0 0 0-.868-.106 1.614 1.614 0 0 1-.047-.293.82.82 0 0 1 .047-.257zm24.293 6.575c.773 0 1.469.136 2.086.41a4.604 4.604 0 0 1 1.594 1.136 5 5 0 0 1 1.008 1.747c.234.673.351 1.407.351 2.204 0 1.625-.457 2.945-1.37 3.96-.907 1.024-2.13 1.536-3.67 1.536-.765 0-1.46-.133-2.085-.399a4.63 4.63 0 0 1-1.58-1.135 5.303 5.303 0 0 1-1.02-1.746 6.687 6.687 0 0 1-.352-2.216c0-.797.117-1.531.352-2.203.234-.68.566-1.261.996-1.745a4.605 4.605 0 0 1 1.593-1.137c.624-.274 1.324-.41 2.097-.41zm0 .761c-.797 0-1.434.386-1.91 1.16-.469.773-.703 1.964-.703 3.574 0 1.61.234 2.8.703 3.574.476.766 1.113 1.148 1.91 1.148.797 0 1.43-.386 1.898-1.16.477-.773.715-1.96.715-3.562 0-.805-.062-1.504-.187-2.098-.125-.594-.3-1.086-.528-1.476-.226-.391-.5-.68-.82-.868a2.03 2.03 0 0 0-1.078-.293zm12.96-.762c.774 0 1.47.136 2.087.41a4.605 4.605 0 0 1 1.594 1.136 5 5 0 0 1 1.007 1.747 6.65 6.65 0 0 1 .352 2.204c0 1.625-.457 2.945-1.371 3.96-.906 1.024-2.13 1.536-3.668 1.536-.766 0-1.46-.133-2.086-.399a4.63 4.63 0 0 1-1.582-1.135 5.303 5.303 0 0 1-1.02-1.746 6.685 6.685 0 0 1-.351-2.216c-.001-.797.116-1.531.35-2.203a5.1 5.1 0 0 1 .997-1.745 4.604 4.604 0 0 1 1.593-1.137c.625-.274 1.325-.41 2.098-.41zm0 .761c-.796 0-1.433.386-1.91 1.16-.468.773-.702 1.964-.702 3.574 0 1.61.234 2.8.703 3.574.476.766 1.113 1.148 1.91 1.148.797 0 1.43-.386 1.898-1.16.477-.773.715-1.96.715-3.562.001-.805-.061-1.504-.186-2.098-.125-.594-.3-1.086-.528-1.476-.226-.391-.5-.68-.82-.868a2.03 2.03 0 0 0-1.078-.293zm14.638 9.41c.687-.07 1.03-.254 1.03-.551 0-.173-.085-.365-.257-.575l-3.2-4.102h-.573c0 1.867.023 3.234.07 4.102 0 .203.05.378.152.527.11.14.266.25.47.328.21.078.382.137.515.176.14.03.324.062.55.094.047.093.07.19.07.292a.454.454 0 0 1-.07.258 64.633 64.633 0 0 0-2.93-.07c-.952 0-1.944.023-2.976.07a1.294 1.294 0 0 1-.047-.257c0-.04.015-.137.046-.293.258-.032.465-.063.621-.094a8.39 8.39 0 0 0 .61-.176c.25-.078.437-.188.562-.328a.846.846 0 0 0 .198-.528c.032-.773.043-3.21.036-7.312l-.012-6.902c-.445-.258-1.195-.418-2.25-.48a.788.788 0 0 1-.059-.282c0-.078.02-.168.059-.27 1.484-.14 2.8-.46 3.95-.96.21.085.347.19.41.316l.023 11.04h.61l2.366-2.25c.15-.173.224-.349.224-.528 0-.328-.371-.532-1.113-.61a1.294 1.294 0 0 1-.046-.258c0-.07.015-.167.047-.292a55.51 55.51 0 0 0 2.426.07c.657 0 1.489-.024 2.496-.07a.792.792 0 0 1 .047.246c0 .046-.016.148-.048.304-.695.078-1.27.196-1.722.352-.453.148-.863.41-1.23.785l-1.864 1.887 4.125 5.215c.47.609 1.173.984 2.11 1.125.032.156.047.261.047.316 0 .062-.015.14-.047.234A59.248 59.248 0 0 0 55.5 25c-.79 0-1.688.023-2.695.07a1.28 1.28 0 0 1-.047-.28c0-.056.015-.146.047-.27zM68.19 7.387c.619 0 1.232.043 1.841.129.618.078 1.208.175 1.77.293.571.108 1.11.217 1.618.327s.965.187 1.371.234c-.095.282-.142.778-.142 1.49 0 1.382.207 2.581.621 3.597-.047.14-.192.227-.434.258l-.504-1.078c-.25-.54-.55-1.07-.902-1.594a6.62 6.62 0 0 0-1.266-1.418 5.982 5.982 0 0 0-1.723-1.02c-.647-.257-1.397-.386-2.249-.386-.733-.001-1.385.12-1.956.362a4.9 4.9 0 0 0-1.5.984 5.68 5.68 0 0 0-1.09 1.43 9.124 9.124 0 0 0-.726 1.723c-.18.608-.312 1.233-.398 1.874-.079.64-.118 1.262-.118 1.863 0 1 .13 1.957.387 2.871a7.045 7.045 0 0 0 1.23 2.426 6.02 6.02 0 0 0 2.109 1.664c.858.414 1.882.621 3.07.621 2.273 0 3.991-.712 5.156-2.134.124 0 .226.035.304.106.086.07.13.156.13.258a6.006 6.006 0 0 1-1.372 1.44 8.33 8.33 0 0 1-1.7 1.009 9.34 9.34 0 0 1-1.827.573 8.49 8.49 0 0 1-1.699.188c-.569 0-1.186-.062-1.85-.187a9.237 9.237 0 0 1-1.98-.598 9.354 9.354 0 0 1-1.9-1.101 7.698 7.698 0 0 1-1.604-1.688c-.47-.672-.844-1.457-1.125-2.355-.28-.898-.421-1.929-.421-3.093-.001-1.172.14-2.207.42-3.105.282-.907.657-1.696 1.125-2.368a7.45 7.45 0 0 1 1.63-1.687 9.346 9.346 0 0 1 1.91-1.113 8.65 8.65 0 0 1 1.968-.61 9.81 9.81 0 0 1 1.828-.187zm8.52.761c1.485-.14 2.802-.46 3.95-.96.211.085.348.19.41.316 0 8.851.032 14.148.094 15.89a.882.882 0 0 0 .14.446c.094.125.196.226.305.305.109.07.257.136.445.199.187.054.332.094.433.117.11.017.254.036.434.06.047.093.07.19.07.292a.454.454 0 0 1-.07.258 66.077 66.077 0 0 0-3-.07c-.953 0-1.945.023-2.977.07a1.297 1.297 0 0 1-.047-.257c0-.04.016-.137.047-.293.258-.032.465-.063.621-.094a8.39 8.39 0 0 0 .61-.176c.25-.078.437-.188.562-.328a.846.846 0 0 0 .2-.528c.03-.773.046-2.503.046-5.19 0-1.243-.004-2.935-.011-5.075-.008-2.142-.012-3.458-.012-3.95-.444-.258-1.194-.418-2.25-.48a.79.79 0 0 1-.058-.282c0-.078.02-.168.059-.27zm13.49 6.2c.773 0 1.468.136 2.085.41a4.604 4.604 0 0 1 1.594 1.136 5 5 0 0 1 1.007 1.747c.234.673.351 1.407.351 2.204 0 1.625-.457 2.945-1.37 3.96-.907 1.024-2.13 1.536-3.669 1.536-.766 0-1.462-.133-2.087-.399a4.633 4.633 0 0 1-1.582-1.135 5.304 5.304 0 0 1-1.018-1.746 6.685 6.685 0 0 1-.352-2.216c0-.797.117-1.531.352-2.203.234-.68.566-1.261.996-1.745a4.605 4.605 0 0 1 1.594-1.137c.625-.274 1.324-.41 2.097-.41zm0 .761c-.798 0-1.434.386-1.91 1.16-.47.773-.704 1.964-.704 3.574 0 1.61.234 2.8.703 3.574.476.766 1.112 1.148 1.91 1.148.796 0 1.429-.386 1.898-1.16.476-.773.715-1.96.715-3.562 0-.805-.063-1.504-.188-2.098-.125-.594-.3-1.086-.527-1.476-.227-.391-.5-.68-.82-.868a2.03 2.03 0 0 0-1.079-.293zm7.171-.504.845.046c.281.016.504.028.668.035a8.355 8.355 0 0 0 .867 0l.633-.036c.273-.015.535-.03.785-.047.14.047.254.168.34.364a5.885 5.885 0 0 1-.047.28c-.015.117-.03.262-.046.434-.008.164-.012.367-.012.61l-.023 5.565c0 1.406.425 2.109 1.276 2.109.79-.001 1.91-.52 3.364-1.56 0-2.328-.036-4.367-.106-6.117a.823.823 0 0 0-.082-.375.738.738 0 0 0-.258-.281c-.11-.078-.21-.14-.304-.188a1.268 1.268 0 0 0-.387-.141 2.81 2.81 0 0 0-.363-.083c-.07-.016-.188-.04-.352-.07a1.3 1.3 0 0 1-.047-.282 1.3 1.3 0 0 1 .048-.27 515.457 515.457 0 0 0 1.512.083 8.347 8.347 0 0 0 .867 0c.156-.01.367-.02.633-.037.273-.015.535-.03.785-.047.04.024.07.047.094.07.03.016.053.04.07.071a.298.298 0 0 1 .082.14c.015.04.026.067.034.083a9.1 9.1 0 0 0-.094 1.323 71.228 71.228 0 0 0-.07 2.8c0 .376.008 1.005.023 1.887.016.883.024 1.657.024 2.32.444.259 1.194.419 2.25.481.038.197.058.298.058.306 0 .047-.02.129-.06.246-1.476.14-2.796.46-3.96.96-.203-.085-.336-.19-.398-.315v-1.829c-.782.672-1.52 1.207-2.215 1.606-.688.39-1.383.586-2.086.586-.892 0-1.525-.25-1.9-.75-.367-.5-.558-1.285-.574-2.356l-.094-5.94c-.015-.18-.05-.314-.105-.4a.695.695 0 0 0-.246-.257 2.32 2.32 0 0 0-.304-.188 1.45 1.45 0 0 0-.398-.141 2.797 2.797 0 0 0-.364-.083c-.07-.016-.19-.04-.363-.07a1.28 1.28 0 0 1-.046-.282c0-.055.016-.144.047-.27zm20.778-6.458c1.477-.14 2.797-.46 3.96-.96.204.085.337.19.4.316 0 8.851.035 14.148.105 15.89a.93.93 0 0 0 .176.528c.116.14.28.25.49.328.212.078.388.137.53.176.14.03.323.062.55.094.03.125.046.222.046.292 0 .047-.015.133-.047.258a302.3 302.3 0 0 0-1.512-.082 7.685 7.685 0 0 0-.856 0l-.608.035-.762.047a.448.448 0 0 1-.104-.058.593.593 0 0 0-.06-.035.525.525 0 0 0-.034-.06.28.28 0 0 0-.035-.058.247.247 0 0 1-.035-.07c-.008-.048-.016-.075-.024-.083.03-.188.047-.61.047-1.266-1.29 1.267-2.48 1.9-3.574 1.9-1.202 0-2.183-.453-2.94-1.36-.758-.906-1.137-2.14-1.137-3.703 0-.539.062-1.078.187-1.617a6.18 6.18 0 0 1 .62-1.594c.29-.523.646-.984 1.068-1.382.422-.399.957-.72 1.605-.961.65-.25 1.367-.375 2.156-.375.585 0 1.273.125 2.062.375a529.837 529.837 0 0 1-.024-5.543c-.445-.258-1.195-.418-2.25-.48a1.283 1.283 0 0 1-.046-.282c0-.055.015-.145.046-.27zm-.222 15.657c.78 0 1.605-.418 2.472-1.254.016-.765.024-2.214.024-4.347v-1.7c-.54-.929-1.363-1.394-2.473-1.394-.235 0-.47.035-.704.105-.234.07-.484.21-.75.422-.266.21-.5.48-.703.808-.195.328-.36.785-.492 1.371-.132.579-.198 1.247-.198 2.004 0 1.157.238 2.11.714 2.86.485.75 1.188 1.125 2.11 1.125z" fill="current"/></svg>