<svg width="31" height="24" viewBox="0 0 31 24" fill="none" xmlns="http://www.w3.org/2000/svg"><path d="M10.067 0c.368 0 .674.267.788.619a4.523 4.523 0 0 0 4.312 3.13A4.523 4.523 0 0 0 19.48.619c.114-.353.42-.62.788-.62h.594c1.06 0 2.083.37 2.898 1.045l5.95 4.927c.31.258.503.633.536 1.036.033.403-.099.801-.367 1.106l-2.64 3a1.516 1.516 0 0 1-2.103.164l-2.428-2.01V21c0 1.654-1.353 3-3.017 3h-9.05a3.01 3.01 0 0 1-3.017-3V9.267l-2.428 2.01c-.627.521-1.56.45-2.102-.163l-2.64-3A1.487 1.487 0 0 1 .09 7.008c.032-.403.225-.778.536-1.036l5.949-4.927A4.543 4.543 0 0 1 9.474 0h.593z" fill="#616161"/></svg>