<svg width="309" height="135" viewBox="0 0 309 135" fill="none" xmlns="http://www.w3.org/2000/svg"><path d="M80.183 34.288c-2.128 0-3.784-.72-4.968-2.16-1.184-1.456-1.776-3.592-1.776-6.408-.001-2.816.59-4.976 1.775-6.48 1.184-1.52 2.84-2.28 4.968-2.28 1.408 0 2.584.32 3.528.96.96.64 1.705 1.544 2.233 2.712l-1.632.984c-.335-.864-.847-1.552-1.535-2.064-.688-.528-1.552-.792-2.592-.792-.72 0-1.368.136-1.944.408-.561.272-1.041.664-1.441 1.176-.385.496-.681 1.096-.89 1.8-.207.688-.311 1.464-.311 2.328v2.496c-.001 1.728.399 3.08 1.199 4.056.799.976 1.927 1.464 3.383 1.464 1.072 0 1.968-.272 2.688-.816.72-.56 1.249-1.296 1.585-2.208l1.608 1.008c-.528 1.184-1.288 2.12-2.28 2.808-.992.672-2.192 1.008-3.6 1.008zm14.961 0c-1.088 0-2.072-.184-2.952-.552a6.314 6.314 0 0 1-2.232-1.656c-.608-.736-1.08-1.64-1.416-2.712-.336-1.088-.504-2.336-.504-3.744s.168-2.648.504-3.72c.336-1.072.808-1.976 1.416-2.712a5.953 5.953 0 0 1 2.232-1.656c.88-.384 1.864-.576 2.952-.576 1.072 0 2.048.192 2.928.576.88.368 1.624.92 2.232 1.656.624.736 1.104 1.64 1.44 2.712.336 1.072.504 2.312.504 3.72s-.168 2.656-.504 3.744c-.336 1.072-.816 1.976-1.44 2.712a6.037 6.037 0 0 1-2.232 1.656c-.88.368-1.856.552-2.928.552zm0-1.8a5.08 5.08 0 0 0 1.992-.384A4.332 4.332 0 0 0 98.696 31a4.924 4.924 0 0 0 1.032-1.728c.24-.672.36-1.424.36-2.256v-2.784c0-.832-.12-1.584-.36-2.256a4.924 4.924 0 0 0-1.032-1.728 4.332 4.332 0 0 0-1.56-1.104 5.082 5.082 0 0 0-1.992-.384c-.72 0-1.384.128-1.992.384a4.566 4.566 0 0 0-1.584 1.104 5.126 5.126 0 0 0-1.008 1.728c-.24.672-.36 1.424-.36 2.256v2.784c0 .832.12 1.584.36 2.256.24.672.576 1.248 1.008 1.728.448.48.976.848 1.584 1.104a5.082 5.082 0 0 0 1.992.384zm23.785-12.6h-.12l-1.417 2.808-4.008 7.296-4.008-7.296-1.416-2.808h-.12V34h-1.967V17.248h2.688l4.8 9.024h.12l4.825-9.024h2.592V34h-1.968V19.888zM124.556 34v-1.68h2.352V18.928h-2.353v-1.68h6.72v1.68h-2.352V32.32h2.352V34h-6.72zm14.458-10.224L137 20.056h-.073V34h-1.968V17.248h2.327l6.12 10.224 2.016 3.72h.072V17.248h1.968V34h-2.328l-6.12-10.224zm23.76 7.776h-.072c-.208.784-.72 1.44-1.536 1.968-.8.512-1.84.768-3.12.768-1.024 0-1.968-.184-2.832-.552a6.144 6.144 0 0 1-2.184-1.656c-.607-.736-1.087-1.64-1.44-2.712-.335-1.088-.503-2.336-.503-3.744 0-1.392.168-2.624.504-3.696.337-1.088.817-1.992 1.44-2.712a6.14 6.14 0 0 1 2.257-1.68c.88-.384 1.856-.576 2.928-.576 1.504 0 2.76.336 3.768 1.008a6.703 6.703 0 0 1 2.328 2.664l-1.655 1.008c-.384-.896-.96-1.6-1.728-2.112-.752-.512-1.656-.768-2.712-.768a4.88 4.88 0 0 0-2.016.408 4.566 4.566 0 0 0-1.585 1.104A5.126 5.126 0 0 0 153.607 22c-.24.672-.36 1.424-.36 2.256v2.712c0 .832.12 1.592.36 2.28.24.672.576 1.248 1.008 1.728.448.48.992.856 1.632 1.128.64.256 1.36.384 2.16.384.576 0 1.12-.072 1.632-.216.527-.16.983-.392 1.367-.696.4-.304.712-.68.936-1.128.224-.464.336-1.008.336-1.632V27.16h-3.697v-1.776h5.664V34h-1.872v-2.448zm16.216 2.736c-1.36 0-2.52-.256-3.48-.768a7.514 7.514 0 0 1-2.447-2.16l1.488-1.248c.593.784 1.25 1.384 1.97 1.8.72.4 1.567.6 2.543.6 1.2 0 2.112-.288 2.736-.864.64-.576.96-1.344.96-2.304 0-.8-.24-1.416-.72-1.848-.48-.432-1.273-.776-2.377-1.032l-1.368-.312c-1.536-.352-2.712-.88-3.528-1.584-.8-.72-1.2-1.728-1.2-3.024 0-.736.136-1.392.408-1.968a4.006 4.006 0 0 1 1.128-1.44 5.13 5.13 0 0 1 1.752-.864 7.767 7.767 0 0 1 2.256-.312c1.265 0 2.345.232 3.24.696.913.464 1.68 1.144 2.305 2.04l-1.512 1.104a5.212 5.212 0 0 0-1.68-1.512c-.656-.368-1.472-.552-2.448-.552-1.072 0-1.92.232-2.544.696-.607.448-.91 1.128-.91 2.04 0 .8.255 1.408.767 1.824.528.4 1.32.72 2.376.96l1.368.312c1.65.368 2.84.928 3.577 1.68.736.752 1.104 1.752 1.104 3 0 .768-.135 1.464-.407 2.088a4.165 4.165 0 0 1-1.128 1.584c-.496.432-1.104.768-1.824 1.008-.703.24-1.503.36-2.4.36zm15.506 0c-1.088 0-2.072-.184-2.952-.552a6.314 6.314 0 0 1-2.232-1.656c-.608-.736-1.08-1.64-1.416-2.712-.336-1.088-.504-2.336-.504-3.744s.168-2.648.504-3.72c.336-1.072.808-1.976 1.416-2.712a5.953 5.953 0 0 1 2.232-1.656c.88-.384 1.864-.576 2.952-.576 1.072 0 2.048.192 2.928.576.88.368 1.624.92 2.232 1.656.624.736 1.104 1.64 1.44 2.712.336 1.072.504 2.312.504 3.72s-.168 2.656-.504 3.744c-.336 1.072-.816 1.976-1.44 2.712a6.042 6.042 0 0 1-2.232 1.656c-.88.368-1.856.552-2.928.552zm0-1.8c.72 0 1.384-.128 1.992-.384a4.333 4.333 0 0 0 1.56-1.104 4.924 4.924 0 0 0 1.032-1.728c.24-.672.36-1.424.36-2.256v-2.784c0-.832-.12-1.584-.36-2.256a4.924 4.924 0 0 0-1.032-1.728 4.333 4.333 0 0 0-1.56-1.104 5.082 5.082 0 0 0-1.992-.384c-.72 0-1.384.128-1.992.384a4.566 4.566 0 0 0-1.584 1.104 5.126 5.126 0 0 0-1.008 1.728c-.24.672-.36 1.424-.36 2.256v2.784c0 .832.12 1.584.36 2.256.24.672.576 1.248 1.008 1.728.448.48.976.848 1.584 1.104a5.082 5.082 0 0 0 1.992.384zm16.992 1.8c-1.088 0-2.072-.184-2.952-.552a6.314 6.314 0 0 1-2.232-1.656c-.608-.736-1.08-1.64-1.416-2.712-.336-1.088-.504-2.336-.504-3.744s.168-2.648.504-3.72c.336-1.072.808-1.976 1.416-2.712a5.953 5.953 0 0 1 2.232-1.656c.88-.384 1.864-.576 2.952-.576 1.072 0 2.048.192 2.928.576.88.368 1.624.92 2.232 1.656.624.736 1.104 1.64 1.44 2.712.336 1.072.504 2.312.504 3.72s-.168 2.656-.504 3.744c-.336 1.072-.816 1.976-1.44 2.712a6.042 6.042 0 0 1-2.232 1.656c-.88.368-1.856.552-2.928.552zm0-1.8a5.08 5.08 0 0 0 1.992-.384A4.332 4.332 0 0 0 215.04 31a4.924 4.924 0 0 0 1.032-1.728c.24-.672.36-1.424.36-2.256v-2.784c0-.832-.12-1.584-.36-2.256a4.924 4.924 0 0 0-1.032-1.728 4.332 4.332 0 0 0-1.56-1.104 5.082 5.082 0 0 0-1.992-.384c-.72 0-1.384.128-1.992.384a4.566 4.566 0 0 0-1.584 1.104 5.126 5.126 0 0 0-1.008 1.728c-.24.672-.36 1.424-.36 2.256v2.784c0 .832.12 1.584.36 2.256.24.672.576 1.248 1.008 1.728.448.48.976.848 1.584 1.104a5.082 5.082 0 0 0 1.992.384zm14.784-8.712-2.016-3.72h-.072V34h-1.968V17.248h2.328l6.12 10.224 2.016 3.72h.072V17.248h1.968V34h-2.328l-6.12-10.224z" fill="white"/><path d="M65.576 70.772v10.416h-.9V75.2h-2.88v-.768h2.88v-3.66h.9zm-2.544 6.576.132.732c-1.224.248-2.748.372-4.572.372h-1.26v-6.828h4.752v.768h-3.852v5.304h.336c1.752 0 3.24-.116 4.464-.348zm16.39-6.576v10.416h-.875v-5.592h-1.62V80.9h-.876v-9.948h.877v3.888h1.62v-4.068h.876zm-6.155 4.524c.104 0 .2.056.288.168l1.932 2.676-.648.552-1.945-2.76c-.04-.048-.08-.072-.12-.072s-.072.024-.096.072c-.17.408-.401.836-.697 1.284-.296.44-.696.988-1.2 1.644l-.636-.54c.592-.744 1.044-1.384 1.356-1.92.32-.544.548-1.08.684-1.608a7.436 7.436 0 0 0 .204-1.824v-.348H70.4v-.768h4.81v.768h-1.955v.348c0 .928-.128 1.752-.384 2.472l.06.036.12-.096a.437.437 0 0 1 .217-.084zm16.591 1.488h-.924v-6.012h.924v6.012zm-3.372-.708h-5.004V71.3h5.004v4.776zm-.912-4.032h-3.168v3.276h3.168v-3.276zm5.268 8.976-.588.624-1.776-1.74a.216.216 0 0 0-.168-.084.215.215 0 0 0-.108.036 5.81 5.81 0 0 1-.708.84c-.288.296-.672.652-1.152 1.068l-1.824-1.896c-.056-.056-.112-.084-.168-.084-.032 0-.076.02-.132.06-.352.528-.952 1.156-1.8 1.884l-.576-.612c.536-.448.956-.848 1.26-1.2.304-.352.52-.7.648-1.044.136-.344.204-.732.204-1.164v-.384h.864v.408c0 .656-.124 1.228-.372 1.716l.048.024.156-.12a.335.335 0 0 1 .228-.084c.096 0 .18.036.252.108l1.272 1.272c.576-.52.972-.988 1.188-1.404.216-.416.324-.924.324-1.524v-.396h.864v.444c0 .352-.028.664-.084.936a3.022 3.022 0 0 1-.276.78l.048.036.156-.132a.433.433 0 0 1 .252-.096c.08 0 .16.032.24.096l1.728 1.632zm8.287-8.604h-6.337v-.78h7.236v.852c0 1.776-.173 3.468-.517 5.076l-.888-.144c.336-1.624.504-3.256.504-4.896v-.108zm2.23 6.816V80h-9.79v-.768h3.84V75.38h.9v3.852h5.05zm13.848-3.588h-1.728v5.568h-.912V70.796h.912v4.08h1.728v.768zm-3.9 1.704.12.732c-1.224.248-2.752.372-4.584.372h-1.272v-6.828h4.788v.768h-3.876v5.304h.348c1.76 0 3.252-.116 4.476-.348zm12.944-4.272v1.584h1.656v.756h-1.656v1.56h-.9v-6.204h.9v1.548h1.656v.756h-1.656zm-5.628 3.228c-.528 0-1-.104-1.416-.312a2.315 2.315 0 0 1-.96-.9c-.232-.392-.348-.852-.348-1.38s.116-.988.348-1.38c.232-.392.552-.692.96-.9a3.123 3.123 0 0 1 1.416-.312c.528 0 .996.104 1.404.312.408.208.728.508.96.9.232.392.348.852.348 1.38s-.116.988-.348 1.38a2.315 2.315 0 0 1-.96.9c-.408.208-.876.312-1.404.312zm0-.744c.52 0 .94-.148 1.26-.444.328-.296.492-.692.492-1.188v-.432c0-.496-.164-.892-.492-1.188-.32-.296-.74-.444-1.26-.444-.528 0-.956.148-1.284.444-.32.296-.48.692-.48 1.188v.432c0 .496.16.892.48 1.188.328.296.756.444 1.284.444zm5.712 3.912c0 .44-.124.832-.372 1.176-.248.352-.62.628-1.116.828-.496.2-1.104.3-1.824.3-.712 0-1.32-.1-1.824-.3-.496-.2-.872-.476-1.128-.828a1.96 1.96 0 0 1-.372-1.176c0-.44.124-.832.372-1.176.256-.352.632-.628 1.128-.828.504-.2 1.112-.3 1.824-.3.72 0 1.328.1 1.824.3.496.2.868.476 1.116.828.248.344.372.736.372 1.176zm-.96-.096c0-.416-.196-.764-.588-1.044-.384-.28-.972-.42-1.764-.42-.784 0-1.372.144-1.764.432-.392.28-.588.624-.588 1.032v.204c0 .408.196.752.588 1.032.392.288.98.432 1.764.432.792 0 1.38-.144 1.764-.432.392-.28.588-.624.588-1.032v-.204zm13.243-5.04v.768h-1.67V78.8h-.91v-8.028h.91v3.564h1.67zm-5.33-2.472h-3.203v-.768h3.204v.768zm-1.68 5.688c-.495 0-.93-.084-1.307-.252a2.074 2.074 0 0 1-.876-.696 1.76 1.76 0 0 1-.3-1.008c0-.376.088-.704.264-.984.185-.288.457-.508.817-.66v-.06h-1.872v-.756h6.504v.756h-1.825v.06c.36.152.628.372.804.66.183.28.275.608.275.984 0 .376-.104.712-.312 1.008-.2.296-.488.528-.864.696-.377.168-.813.252-1.31.252zm-.095-.768h.204c.447 0 .81-.12 1.09-.36.29-.248.433-.592.433-1.032 0-.44-.14-.784-.42-1.032-.28-.248-.648-.372-1.104-.372h-.205c-.456 0-.824.124-1.104.372-.28.24-.42.584-.42 1.032 0 .44.14.784.42 1.032.29.24.657.36 1.105.36zm-.192 3.936h5.868v.756h-6.18c-.19 0-.34-.052-.443-.156-.104-.104-.156-.256-.156-.456v-2.4h.913v2.256zm17.47-4.104h-.863V70.94h.864v2.472h1.62v-2.64h.876v5.916h-.876v-2.52h-1.62v2.448zm-2.65-4.848h-2.785v-.708h2.784v.708zm-1.453 3.252a.218.218 0 0 0-.156.072c-.384.464-.988 1.008-1.812 1.632l-.588-.528c.552-.416.98-.768 1.284-1.056.304-.296.528-.58.672-.852a2.14 2.14 0 0 0 .264-.9h-1.98v-.708h4.716v.708h-1.908c-.032.496-.168.94-.408 1.332l.048.024.168-.12a.416.416 0 0 1 .24-.084.43.43 0 0 1 .276.108l1.824 1.356-.588.54-1.86-1.452a.287.287 0 0 0-.192-.072zm6.876 5.916v.744h-6.48c-.192 0-.34-.052-.444-.156s-.156-.256-.156-.456V79.1h5.904v-1.08h-5.976v-.744h6.876v2.556h-5.904v1.104h6.18zm10.16-2.136h-.925v-8.028h.925V78.8zm-2.15-2.004c-1.28.248-2.89.372-4.835.372h-1.247v-3.3h3.708v-1.692h-3.755v-.744h4.668V74.6h-3.708v1.824h.336c1.81 0 3.38-.116 4.717-.348l.12.72zm2.365 3.864v.756h-6.31c-.193 0-.34-.052-.445-.156-.104-.104-.156-.256-.156-.456v-2.568h.91v2.424h6zm10.424-9.888v10.416h-.912V70.772h.912zm-5.016 4.404a.34.34 0 0 1 .276.132l2.352 2.76-.684.588-2.376-2.856a.182.182 0 0 0-.144-.072c-.048 0-.092.024-.132.072-.216.44-.5.888-.852 1.344a27.333 27.333 0 0 1-1.44 1.68l-.684-.576c.696-.728 1.232-1.36 1.608-1.896.384-.536.66-1.068.828-1.596.168-.536.252-1.144.252-1.824v-.456h-2.364v-.768h5.628v.768h-2.352v.492c0 .904-.14 1.708-.42 2.412l.06.036.18-.144a.447.447 0 0 1 .264-.096zm14.12-2.532v-1.032h-5.856v-.672h6.732v2.364h-5.784v1.02h6.084v.684h-6.972v-2.364h5.796zm2.46 3.264v.708h-9.792v-.708h9.792zm-8.292 5.196v-1.812h5.976v-1.008h-6.048v-.708h6.9v2.388h-5.976v1.032h6.288v.72h-6.54c-.192 0-.34-.052-.444-.156s-.156-.256-.156-.456zm16.487-9.168h-3.252v-.732h7.393v.732h-3.216c-.008.304-.052.58-.132.828-.08.24-.212.468-.396.684l.06.024.25-.168a.51.51 0 0 1 .313-.12c.088 0 .18.024.276.072l3.287 1.608-.504.672-3.42-1.74a.633.633 0 0 0-.3-.084.526.526 0 0 0-.276.072c-.312.28-.736.564-1.272.852-.528.28-1.204.588-2.028.924l-.48-.66c.952-.376 1.688-.716 2.208-1.02.52-.304.892-.608 1.116-.912.225-.304.35-.648.373-1.032zm5.34 4.476v.792h-4.38v2.124h-.912v-2.124h-4.5v-.792h9.793zm-7.512 4.284h6.23v.756h-6.53c-.19 0-.34-.052-.443-.156-.104-.104-.156-.256-.156-.456v-2.472h.9v2.328zm16.436-9.924h.912v10.416h-.912V70.772zm-7.404.744h.9v2.628h3.156v-2.64h.888v6.876h-4.944v-6.864zm4.056 6.096v-2.7h-3.156v2.7h3.156zm10.495-5.772h-3.264v-.732h7.39v.732h-3.227c-.016.56-.188 1.032-.516 1.416l.06.024.252-.18a.586.586 0 0 1 .31-.108c.08 0 .177.024.29.072l3.275 1.524-.48.66-3.432-1.656a.653.653 0 0 0-.312-.084.547.547 0 0 0-.3.084c-.31.264-.73.532-1.26.804-.527.264-1.203.556-2.027.876l-.468-.648c.952-.36 1.688-.68 2.208-.96.52-.288.892-.572 1.116-.852.23-.28.36-.604.383-.972zm.888 4.968v.96c1.01.056 1.777.264 2.305.624.528.36.792.824.792 1.392 0 .4-.136.752-.408 1.056-.265.312-.665.556-1.2.732-.53.176-1.177.264-1.945.264s-1.42-.088-1.956-.264c-.53-.176-.93-.42-1.2-.732a1.562 1.562 0 0 1-.397-1.056c0-.568.264-1.032.792-1.392s1.296-.568 2.304-.624v-.96h-4.44v-.768h9.79v.768h-4.44zm-.455 1.656c-.872 0-1.528.12-1.968.36-.432.24-.648.536-.648.888v.168c0 .344.215.636.647.876.44.24 1.096.36 1.968.36.872 0 1.524-.12 1.956-.36.433-.24.65-.532.65-.876v-.168c0-.36-.217-.656-.65-.888-.423-.24-1.075-.36-1.955-.36zm14.792-7.692v5.796h-.924v-5.796h.924zm-8.64 2.892c0-.52.116-.972.348-1.356.24-.392.568-.692.984-.9a3.2 3.2 0 0 1 1.427-.312c.528 0 1 .104 1.416.312.424.208.752.508.984.9.24.384.36.836.36 1.356 0 .52-.12.976-.36 1.368-.232.384-.56.68-.984.888a3.123 3.123 0 0 1-1.416.312 3.2 3.2 0 0 1-1.428-.312 2.402 2.402 0 0 1-.985-.888c-.232-.392-.348-.848-.348-1.368zm4.548.192v-.396c0-.488-.164-.876-.492-1.164-.328-.296-.76-.444-1.296-.444s-.972.148-1.308.444c-.33.288-.494.676-.494 1.164v.396c0 .488.165.88.493 1.176.335.296.77.444 1.307.444.528 0 .956-.148 1.284-.444.337-.296.505-.688.505-1.176zm-2.496 7.152v-3.78h.887v1.38h4.788v-1.38h.912v4.392h-5.988c-.193 0-.34-.052-.445-.156-.104-.104-.156-.256-.156-.456zm5.675-1.62h-4.788v1.452h4.788v-1.452zm11.55-8.616v10.416h-.91V70.772h.91zm-2.363 6.42.12.756c-1.304.256-2.884.384-4.74.384h-1.308v-6.72h.912v5.94h.36c1.864 0 3.416-.12 4.656-.36zm14.24-1.548h-1.73v5.568h-.91V70.796h.91v4.08h1.73v.768zm-3.9 1.704.12.732c-1.225.248-2.753.372-4.585.372h-1.272v-6.828h4.788v.768h-3.876v5.304h.348c1.76 0 3.252-.116 4.476-.348zm5.502.432-.288-3.72v-2.436h1.056v2.436l-.288 3.72h-.48zm.24 2.364c-.256 0-.444-.064-.564-.192a.738.738 0 0 1-.168-.504v-.156c0-.208.056-.376.168-.504.12-.128.308-.192.564-.192s.44.064.552.192c.12.128.18.296.18.504v.156c0 .208-.06.376-.18.504-.112.128-.296.192-.552.192zM70.106 88.772v10.416h-.888V88.772h.888zm-3.288.18h.876V98.9h-.876v-5.748H65.15v-.768h1.668v-3.432zm-2.928 4.14c.112 0 .196.048.252.144l1.956 2.88-.684.576-1.92-2.916c-.024-.048-.06-.072-.108-.072-.048 0-.084.028-.108.084-.168.44-.4.896-.696 1.368a25.918 25.918 0 0 1-1.2 1.716l-.648-.564c.592-.784 1.044-1.456 1.356-2.016.312-.56.532-1.116.66-1.668.136-.552.204-1.192.204-1.92v-1.08h.876v1.068c0 .952-.112 1.804-.336 2.556l.036.036.132-.108a.335.335 0 0 1 .228-.084zm17.78-1.632v.768h-1.668v2.748h-.912v-6.204h.912v2.688h1.668zm-7.128.72c-.056 0-.108.028-.156.084-.208.344-.484.7-.828 1.068-.336.36-.792.808-1.368 1.344l-.672-.588c.68-.608 1.204-1.128 1.572-1.56.368-.432.632-.86.792-1.284.16-.424.24-.904.24-1.44v-.648h.912v.696c0 .728-.14 1.392-.42 1.992l.06.048.192-.168a.418.418 0 0 1 .264-.108c.088 0 .168.036.24.108l2.28 2.112-.648.624-2.304-2.208a.218.218 0 0 0-.156-.072zm5.544 5.292c0 .44-.124.832-.372 1.176-.248.352-.62.628-1.116.828-.496.2-1.104.3-1.824.3-.712 0-1.32-.1-1.824-.3-.496-.2-.872-.476-1.128-.828a1.96 1.96 0 0 1-.372-1.176c0-.44.124-.832.372-1.176.256-.352.632-.628 1.128-.828.504-.2 1.112-.3 1.824-.3.72 0 1.328.1 1.824.3.496.2.868.476 1.116.828.248.344.372.736.372 1.176zm-.96-.096c0-.416-.196-.764-.588-1.044-.384-.28-.972-.42-1.764-.42-.784 0-1.372.144-1.764.432-.392.28-.588.624-.588 1.032v.204c0 .408.196.752.588 1.032.392.288.98.432 1.764.432.792 0 1.38-.144 1.764-.432.392-.28.588-.624.588-1.032v-.204zm15.755-.144V98H85.09v-.768h4.439V94.52h-3.097v-5.1h7.104v5.1H90.44v2.712h4.44zm-7.535-3.48h5.28v-3.564h-5.28v3.564zm16.855-.576h-6.924V89.18h6.828v.768h-5.928v2.46h6.024v.768zm1.38 1.284v.792h-9.792v-.792h9.792zm-7.476 4.176h6.216v.768h-6.528c-.192 0-.34-.052-.444-.156s-.156-.256-.156-.456V96.26h.912v2.376zm20.47-9.864v10.416h-.875v-5.592h-1.61V98.9h-.863v-9.948h.864v3.888h1.61v-4.068h.875zm-4.235 1.8h-4.91v-.756h4.91v.756zm.203 4.908.096.708c-.657.128-1.457.224-2.4.288a43.49 43.49 0 0 1-2.94.096l-.085-.744c.296 0 .732-.008 1.308-.024l-.3-4.272.864-.072.228 4.32c.264-.008.632-.028 1.104-.06l.3-4.272.863.084-.36 4.128c.488-.048.928-.108 1.32-.18zm13.555-2.376h-2.184v-.744h2.184v-1.464h-2.184v-.744h2.184v-1.38h.912v7.908h-.912v-3.576zm-4.956-.564a.182.182 0 0 0-.144.072 6.85 6.85 0 0 1-.816 1.128 26.59 26.59 0 0 1-1.368 1.452l-.672-.588c.672-.648 1.188-1.2 1.548-1.656.368-.456.632-.908.792-1.356.16-.456.24-.976.24-1.56v-.756h.912v.792c0 .808-.14 1.52-.42 2.136l.048.024.192-.156a.454.454 0 0 1 .264-.108c.096 0 .18.04.252.12l2.268 2.292-.66.624-2.292-2.388a.182.182 0 0 0-.144-.072zm6.084 6.12v.756h-6.288c-.192 0-.34-.052-.444-.156s-.156-.256-.156-.456v-2.928h.924v2.784h5.964zm9.536-9.888h.9v10.416h-.9V88.772zm-7.488 3.12c0-.496.124-.932.372-1.308a2.37 2.37 0 0 1 1.02-.876c.432-.208.92-.312 1.464-.312.544 0 1.032.104 1.464.312.432.2.772.492 1.02.876.248.376.372.812.372 1.308s-.124.932-.372 1.308a2.482 2.482 0 0 1-1.02.876c-.432.2-.92.3-1.464.3-.544 0-1.032-.1-1.464-.3a2.482 2.482 0 0 1-1.02-.876 2.32 2.32 0 0 1-.372-1.308zm4.752.144v-.288c0-.48-.176-.868-.528-1.164-.352-.296-.808-.444-1.368-.444s-1.016.148-1.368.444-.528.684-.528 1.164v.288c0 .48.176.868.528 1.164.352.296.808.444 1.368.444s1.016-.148 1.368-.444.528-.684.528-1.164zm-5.256 4.188c1.36 0 2.672-.032 3.936-.096 1.264-.064 2.336-.164 3.216-.3l.096.732a35.19 35.19 0 0 1-3.264.336 68.6 68.6 0 0 1-3.9.108l-.084-.78zm23.59-3.936v.768h-1.583v3.72h-.9v-8.004h.9v3.516h1.584zm-3.31 2.724a31.83 31.83 0 0 1-3.193.324c-1.232.072-2.5.108-3.804.108l-.084-.756c.903 0 1.895-.02 2.975-.06v-1.26c-.696-.064-1.256-.28-1.68-.648-.416-.376-.624-.856-.624-1.44 0-.424.117-.796.35-1.116.24-.32.567-.564.983-.732a3.604 3.604 0 0 1 1.416-.264c.527 0 1 .088 1.415.264.416.168.74.412.972.732s.348.692.348 1.116c0 .584-.212 1.064-.636 1.44-.417.368-.973.584-1.67.648v1.224c1.297-.08 2.345-.18 3.145-.3l.084.72zm-3.66-2.316c.535 0 .97-.116 1.307-.348.336-.24.504-.56.504-.96v-.204c0-.4-.167-.716-.503-.948-.336-.24-.772-.36-1.308-.36-.545 0-.985.12-1.32.36a1.094 1.094 0 0 0-.505.948v.204c0 .4.168.72.504.96.335.232.775.348 1.32.348zm-.385 5.964h5.988v.756h-6.3c-.192 0-.34-.052-.444-.156-.105-.104-.157-.256-.157-.456v-2.532h.912v2.388zm16.027-6.852h-2.292v-.768h2.292v-2.268h.912v6.204h-.912v-3.168zm-4.884.36a.182.182 0 0 0-.144.072c-.216.36-.5.732-.852 1.116a24.6 24.6 0 0 1-1.368 1.356l-.672-.6c.68-.608 1.204-1.128 1.572-1.56.368-.44.632-.872.792-1.296.168-.432.252-.92.252-1.464v-.66h.912v.708c0 .744-.136 1.416-.408 2.016l.048.024.204-.168a.418.418 0 0 1 .264-.108c.088 0 .168.036.24.108l2.292 2.124-.66.636-2.316-2.232a.218.218 0 0 0-.156-.072zm5.856 5.304c0 .44-.128.832-.384 1.176-.248.352-.624.628-1.128.828-.504.2-1.12.3-1.848.3-.728 0-1.348-.1-1.86-.3-.504-.2-.884-.476-1.14-.828a1.96 1.96 0 0 1-.372-1.176c0-.44.124-.832.372-1.176.256-.352.636-.628 1.14-.828.512-.2 1.132-.3 1.86-.3.728 0 1.344.1 1.848.3.504.2.88.476 1.128.828.256.344.384.736.384 1.176zm-.972-.096c0-.416-.2-.764-.6-1.044-.392-.28-.988-.42-1.788-.42s-1.4.144-1.8.432c-.4.28-.6.624-.6 1.032v.204c0 .408.2.752.6 1.032.4.288 1 .432 1.8.432.8 0 1.396-.144 1.788-.432.4-.28.6-.624.6-1.032v-.204zm3.92-6.684c0-.584.3-1.048.9-1.392.6-.352 1.5-.528 2.7-.528s2.1.176 2.7.528c.6.344.9.808.9 1.392 0 .584-.3 1.052-.9 1.404-.6.352-1.5.528-2.7.528s-2.1-.176-2.7-.528c-.6-.352-.9-.82-.9-1.404zm6.227.06v-.132c0-.344-.22-.624-.66-.84-.433-.224-1.09-.336-1.97-.336s-1.54.112-1.98.336c-.43.216-.647.496-.647.84v.132c0 .344.216.628.648.852.44.216 1.1.324 1.98.324s1.537-.108 1.97-.324c.44-.224.66-.508.66-.852zm2.267 2.7v.768h-9.792v-.768h9.792zm-8.268 5.616V97.1h5.915v-1.128h-5.988v-.744h6.864v2.568h-5.915v1.14h6.228v.744h-6.504c-.193 0-.34-.052-.445-.156-.104-.104-.156-.256-.156-.456zm21.262-10.296v10.416h-.876V88.772h.876zm-3.264.18h.852V98.9h-.852v-5.736h-1.668v-.756h1.668v-3.456zm-2.916 4.344c.096 0 .188.056.276.168l1.908 2.676-.648.552-1.92-2.76c-.04-.048-.08-.072-.12-.072s-.072.024-.096.072c-.168.416-.4.848-.696 1.296-.288.44-.68.984-1.176 1.632l-.636-.54c.584-.744 1.032-1.384 1.344-1.92.312-.544.536-1.08.672-1.608a7.436 7.436 0 0 0 .204-1.824v-.348h-1.968v-.768h4.764v.768h-1.932v.348c0 .928-.128 1.752-.384 2.472l.06.036.12-.096a.446.446 0 0 1 .228-.084zm15.068-3.42h-6.132v-.768h7.02v.588c0 1.048-.124 2.12-.372 3.216l-.864-.12c.224-.944.34-1.916.348-2.916zm2.352 3.876v.792h-9.792v-.792h4.02v-2.076h.9v2.076h4.872zm-1.344 3.936c0 .416-.136.784-.408 1.104-.264.328-.664.584-1.2.768-.528.184-1.176.276-1.944.276s-1.42-.092-1.956-.276c-.528-.184-.928-.44-1.2-.768a1.685 1.685 0 0 1-.396-1.104c0-.416.132-.784.396-1.104.272-.32.672-.572 1.2-.756.536-.184 1.188-.276 1.956-.276s1.416.092 1.944.276c.536.184.936.436 1.2.756.272.32.408.688.408 1.104zm-.96-.084c0-.376-.216-.692-.648-.948-.424-.256-1.072-.384-1.944-.384-.864 0-1.516.128-1.956.384-.432.256-.648.572-.648.948v.18c0 .368.216.68.648.936.44.256 1.092.384 1.956.384.872 0 1.52-.128 1.944-.384.432-.256.648-.568.648-.936v-.18zm13.315-3.768H209v5.376h-.91V88.796h.91v4.272h1.693v.768zm-5.16-3.696h-3.408v-.78h3.408v.78zm-5.004 1.44h6.42v.744h-1.777v.072c.728.36 1.092 1.052 1.092 2.076 0 .52-.108.972-.324 1.356a2.178 2.178 0 0 1-.9.864c-.375.2-.795.3-1.26.3-.463 0-.887-.1-1.27-.3a2.197 2.197 0 0 1-.89-.864c-.215-.384-.323-.836-.323-1.356 0-1.024.364-1.716 1.092-2.076v-.072h-1.86v-.744zm4.847 2.496c0-.536-.144-.944-.432-1.224-.288-.288-.676-.432-1.164-.432-.48 0-.867.144-1.163.432-.288.288-.432.696-.432 1.224v.492c0 .52.148.928.444 1.224.295.288.68.432 1.15.432.473 0 .857-.144 1.153-.432.296-.296.444-.704.444-1.224v-.492zm13.927-5.304h.912v10.416h-.912V88.772zm-7.548 7.548c1.104-.568 1.948-1.088 2.532-1.56.584-.472.992-.972 1.224-1.5.24-.528.36-1.18.36-1.956v-.9h-3.816v-.78h4.728v1.668c0 .888-.136 1.64-.408 2.256-.264.616-.716 1.192-1.356 1.728-.632.528-1.54 1.108-2.724 1.74l-.54-.696zm22.007-7.548v10.416h-.9V88.772h.9zm-8.316 2.544c0-.44.12-.824.36-1.152a2.32 2.32 0 0 1 1.02-.768c.432-.184.92-.276 1.464-.276.545 0 1.03.092 1.453.276.432.176.768.432 1.008.768.25.328.373.712.373 1.152 0 .448-.124.84-.372 1.176-.24.328-.575.584-1.007.768-.424.176-.908.264-1.452.264-.55 0-1.043-.088-1.475-.264a2.46 2.46 0 0 1-1.008-.768 1.97 1.97 0 0 1-.36-1.176zm.936.12c0 .408.176.736.528.984.353.248.813.372 1.38.372.56 0 1.013-.124 1.357-.372.352-.248.528-.576.528-.984v-.216c0-.416-.176-.748-.528-.996-.344-.248-.796-.372-1.356-.372-.567 0-1.027.124-1.38.372-.35.248-.527.58-.527.996v.216zm5.7 3.552c-.992.152-2.092.264-3.3.336v3.768h-.912v-3.72c-1.063.04-2.047.06-2.95.06l-.073-.768c1.36 0 2.672-.032 3.936-.096 1.264-.064 2.336-.164 3.216-.3l.083.72zm12.69-6.216v10.416h-.887v-5.436h-1.56V98.9h-.876v-9.948h.876v4.044h1.56v-4.224h.888zm-4.98 1.56h-3.083v-.744h3.084v.744zm-4.343 1.344h5.424v.72h-1.428v.06c.632.344.948.996.948 1.956 0 .752-.204 1.34-.612 1.764-.4.416-.928.624-1.584.624-.648 0-1.176-.208-1.584-.624-.4-.424-.6-1.012-.6-1.764 0-.96.312-1.612.936-1.956v-.06h-1.5v-.72zm4.08 2.304c0-.48-.12-.848-.36-1.104-.24-.256-.564-.384-.972-.384s-.732.128-.972.384c-.232.256-.348.624-.348 1.104v.576c0 .472.12.84.36 1.104.248.264.568.396.96.396.392 0 .712-.132.96-.396.248-.264.372-.632.372-1.104v-.576zM62.423 116v-8.376h1.008v7.488h3.565V116h-4.572zm8.138.144a2.79 2.79 0 0 1-1.139-.228 2.548 2.548 0 0 1-.887-.648 3.228 3.228 0 0 1-.564-1.02 4.16 4.16 0 0 1-.205-1.344c0-.488.068-.932.204-1.332.135-.4.323-.74.563-1.02.248-.288.544-.508.888-.66a2.79 2.79 0 0 1 1.141-.228c.417 0 .793.076 1.13.228.343.152.64.372.887.66.248.28.44.62.576 1.02.136.4.204.844.204 1.332 0 .496-.068.944-.204 1.344a3.103 3.103 0 0 1-.576 1.02c-.248.28-.544.496-.888.648a2.706 2.706 0 0 1-1.129.228zm.001-.852c.521 0 .945-.16 1.273-.48s.492-.808.492-1.464v-.888c0-.656-.164-1.144-.492-1.464-.328-.32-.752-.48-1.272-.48-.519 0-.943.16-1.27.48-.329.32-.493.808-.493 1.464v.888c0 .656.164 1.144.492 1.464.327.32.751.48 1.271.48zm6.716.852a2.79 2.79 0 0 1-1.14-.228 2.548 2.548 0 0 1-.888-.648 3.228 3.228 0 0 1-.564-1.02 4.16 4.16 0 0 1-.204-1.344c0-.488.068-.932.204-1.332.136-.4.324-.74.564-1.02.248-.288.544-.508.888-.66a2.79 2.79 0 0 1 1.14-.228c.416 0 .792.076 1.128.228.344.152.64.372.888.66.248.28.44.62.576 1.02.136.4.204.844.204 1.332 0 .496-.068.944-.204 1.344a3.103 3.103 0 0 1-.576 1.02c-.248.28-.544.496-.888.648a2.706 2.706 0 0 1-1.128.228zm0-.852c.52 0 .944-.16 1.272-.48.328-.32.492-.808.492-1.464v-.888c0-.656-.164-1.144-.492-1.464-.328-.32-.752-.48-1.272-.48s-.944.16-1.272.48c-.328.32-.492.808-.492 1.464v.888c0 .656.164 1.144.492 1.464.328.32.752.48 1.272.48zm4.375-8.172h.96v5.628h.049l.947-1.056 1.752-1.884h1.163l-2.292 2.448L86.75 116h-1.163l-2.052-3.156-.924.948V116h-.96v-8.88zm9.283 9.024c-1.064 0-1.892-.36-2.484-1.08-.593-.728-.889-1.796-.889-3.204.001-1.408.297-2.488.89-3.24.591-.76 1.42-1.14 2.483-1.14.704 0 1.292.16 1.764.48.48.32.852.772 1.116 1.356l-.816.492a2.285 2.285 0 0 0-.768-1.032c-.345-.264-.777-.396-1.297-.396-.36 0-.684.068-.972.204-.279.136-.519.332-.719.588-.19.248-.339.548-.443.9a4.02 4.02 0 0 0-.156 1.164v1.248c.001.864.201 1.54.601 2.028.401.488.965.732 1.693.732.536 0 .984-.136 1.344-.408.36-.28.624-.648.792-1.104l.803.504a3.303 3.303 0 0 1-1.14 1.404c-.496.336-1.096.504-1.8.504zm5.425-.144c-.336 0-.592-.092-.768-.276a1.054 1.054 0 0 1-.252-.72v-7.884h.96v8.04h.912v.84h-.852zm4.59.144a2.79 2.79 0 0 1-1.14-.228 2.548 2.548 0 0 1-.888-.648 3.228 3.228 0 0 1-.564-1.02 4.16 4.16 0 0 1-.204-1.344c0-.488.068-.932.204-1.332.136-.4.324-.74.564-1.02.248-.288.544-.508.888-.66a2.79 2.79 0 0 1 1.14-.228c.416 0 .792.076 1.128.228.344.152.64.372.888.66.248.28.44.62.576 1.02.136.4.204.844.204 1.332 0 .496-.068.944-.204 1.344a3.103 3.103 0 0 1-.576 1.02c-.248.28-.544.496-.888.648a2.706 2.706 0 0 1-1.128.228zm0-.852c.52 0 .944-.16 1.272-.48.328-.32.492-.808.492-1.464v-.888c0-.656-.164-1.144-.492-1.464-.328-.32-.752-.48-1.272-.48s-.944.16-1.272.48c-.328.32-.492.808-.492 1.464v.888c0 .656.164 1.144.492 1.464.328.32.752.48 1.272.48zm8.19-.3h-.047a2.914 2.914 0 0 1-.24.432c-.087.136-.2.26-.335.372-.136.104-.3.188-.492.252a2.127 2.127 0 0 1-.672.096c-.64 0-1.147-.204-1.523-.612-.376-.416-.564-1-.564-1.752v-3.972h.96v3.804c0 1.112.472 1.668 1.416 1.668.19 0 .375-.024.55-.072.185-.048.345-.12.48-.216a1.03 1.03 0 0 0 .47-.9v-4.284h.96V116h-.96v-1.008zm6.965 0h-.048c-.376.768-.98 1.152-1.812 1.152-.384 0-.732-.076-1.044-.228a2.324 2.324 0 0 1-.805-.648 3.12 3.12 0 0 1-.504-1.02 4.983 4.983 0 0 1-.167-1.344c0-.496.056-.944.168-1.344.12-.4.29-.74.505-1.02.224-.28.492-.496.804-.648.31-.152.66-.228 1.043-.228.432 0 .8.096 1.104.288.312.184.548.472.708.864h.048v-3.696h.96V116h-.96v-1.008zm-1.596.288c.216 0 .42-.028.612-.084.2-.056.37-.136.515-.24.144-.112.256-.244.336-.396.09-.16.133-.34.133-.54v-2.304a.88.88 0 0 0-.132-.468 1.103 1.103 0 0 0-.335-.384 1.618 1.618 0 0 0-.516-.24 1.923 1.923 0 0 0-.613-.096c-.544 0-.972.172-1.284.516-.312.336-.468.78-.468 1.332v1.056c0 .552.156 1 .468 1.344.312.336.74.504 1.284.504zm12.433-4.356h-6.9v-3.768h.9v3.012h6v.756zm1.392 1.332v.78h-9.792v-.78h9.792zm-7.476 4.38h6.216v.768h-6.528c-.192 0-.34-.052-.444-.156s-.156-.256-.156-.456v-2.628h.912v2.472zm20.16-9.864v10.416h-.9v-10.416h.9zm-3.733 1.14h-3.216v-.732h3.216v.732zm-2.064 1.8h-2.365v-.732h5.604v.732h-2.34a2.6 2.6 0 0 1-.445 1.368l.06.036.228-.156a.48.48 0 0 1 .288-.108.45.45 0 0 1 .265.084l2.184 1.356-.637.588-2.268-1.464a.31.31 0 0 0-.204-.06.31.31 0 0 0-.203.06 6.245 6.245 0 0 1-.84.732c-.344.248-.792.536-1.344.864l-.636-.564c.664-.368 1.18-.692 1.548-.972.368-.288.636-.568.804-.84.175-.28.275-.588.3-.924zm4.03 4.368.085.72c-.904.144-1.992.256-3.264.336a68.6 68.6 0 0 1-3.9.108l-.083-.768c.944 0 1.984-.02 3.12-.06v-1.704h.876v1.668c1.296-.08 2.352-.18 3.168-.3zm11.6-4.008h-2.292v-.768h2.292v-2.532h.912v7.908h-.912v-4.608zm-4.908.456a.182.182 0 0 0-.144.072c-.2.368-.472.748-.816 1.14-.344.392-.804.872-1.38 1.44l-.672-.6c.68-.64 1.2-1.188 1.56-1.644.36-.456.62-.908.78-1.356.168-.456.252-.972.252-1.548v-.756h.924v.792c0 .8-.14 1.504-.42 2.112l.06.048.192-.168a.406.406 0 0 1 .252-.108c.088 0 .172.04.252.12l2.28 2.292-.66.624-2.304-2.388a.218.218 0 0 0-.156-.072zm6.036 6.132v.756h-6.288c-.192 0-.34-.052-.444-.156s-.156-.256-.156-.456v-2.976h.924v2.832h5.964zm2.792-7.968c0-.584.3-1.048.9-1.392.6-.352 1.5-.528 2.7-.528s2.1.176 2.7.528c.6.344.9.808.9 1.392 0 .584-.3 1.052-.9 1.404-.6.352-1.5.528-2.7.528s-2.1-.176-2.7-.528c-.6-.352-.9-.82-.9-1.404zm6.228.06v-.132c0-.344-.22-.624-.66-.84-.432-.224-1.088-.336-1.968-.336s-1.54.112-1.98.336c-.432.216-.648.496-.648.84v.132c0 .344.216.628.648.852.44.216 1.1.324 1.98.324s1.536-.108 1.968-.324c.44-.224.66-.508.66-.852zm2.268 2.7v.768h-9.792v-.768h9.792zm-8.268 5.616V115.1h5.916v-1.128h-5.988v-.744h6.864v2.568h-5.916v1.14h6.228v.744h-6.504c-.192 0-.34-.052-.444-.156s-.156-.256-.156-.456zm22.115-5.424h-1.728v5.568h-.912v-10.416h.912v4.08h1.728v.768zm-3.9 1.704.12.732c-1.224.248-2.752.372-4.584.372h-1.273v-6.828h4.788v.768h-3.876v5.304h.347c1.76 0 3.252-.116 4.476-.348zm14.6-1.512h-1.693v5.376h-.912v-10.416h.912v4.272h1.692v.768zm-5.16-3.696h-3.41v-.78h3.41v.78zm-5.005 1.44h6.42v.744h-1.776v.072c.728.36 1.092 1.052 1.092 2.076 0 .52-.108.972-.324 1.356a2.178 2.178 0 0 1-.9.864c-.376.2-.796.3-1.26.3s-.888-.1-1.272-.3a2.197 2.197 0 0 1-.888-.864c-.216-.384-.324-.836-.324-1.356 0-1.024.364-1.716 1.092-2.076v-.072h-1.86v-.744zm4.848 2.496c0-.536-.144-.944-.432-1.224-.288-.288-.676-.432-1.164-.432-.48 0-.868.144-1.164.432-.288.288-.432.696-.432 1.224v.492c0 .52.148.928.444 1.224.296.288.68.432 1.152.432.472 0 .856-.144 1.152-.432.296-.296.444-.704.444-1.224v-.492zm14.31-1.152h-6.9v-3.768h.9v3.012h6v.756zm1.393 1.332v.78h-9.793v-.78h9.792zm-7.477 4.38h6.216v.768h-6.53c-.19 0-.34-.052-.443-.156-.104-.104-.156-.256-.156-.456v-2.628h.913v2.472zm15.683-8.796h-3.264v-.732h7.392v.732h-3.228c-.016.56-.188 1.032-.516 1.416l.06.024.252-.18a.586.586 0 0 1 .312-.108c.08 0 .176.024.288.072l3.276 1.524-.48.66-3.432-1.656a.653.653 0 0 0-.312-.084.547.547 0 0 0-.3.084c-.312.264-.732.532-1.26.804-.528.264-1.204.556-2.028.876l-.468-.648c.952-.36 1.688-.68 2.208-.96.52-.288.892-.572 1.116-.852.232-.28.36-.604.384-.972zm.888 4.968v.96c1.008.056 1.776.264 2.304.624.528.36.792.824.792 1.392 0 .4-.136.752-.408 1.056-.264.312-.664.556-1.2.732-.528.176-1.176.264-1.944.264s-1.42-.088-1.956-.264c-.528-.176-.928-.42-1.2-.732a1.562 1.562 0 0 1-.396-1.056c0-.568.264-1.032.792-1.392s1.296-.568 2.304-.624v-.96h-4.44v-.768h9.792v.768h-4.44zm-.456 1.656c-.872 0-1.528.12-1.968.36-.432.24-.648.536-.648.888v.168c0 .344.216.636.648.876.44.24 1.096.36 1.968.36.872 0 1.524-.12 1.956-.36.432-.24.648-.532.648-.876v-.168c0-.36-.216-.656-.648-.888-.424-.24-1.076-.36-1.956-.36zm14.792-7.692v5.796h-.924v-5.796h.924zm-8.64 2.892c0-.52.116-.972.348-1.356.24-.392.568-.692.984-.9a3.2 3.2 0 0 1 1.428-.312c.528 0 1 .104 1.416.312.424.208.752.508.984.9.24.384.36.836.36 1.356 0 .52-.12.976-.36 1.368-.232.384-.56.68-.984.888a3.123 3.123 0 0 1-1.416.312 3.2 3.2 0 0 1-1.428-.312 2.402 2.402 0 0 1-.984-.888c-.232-.392-.348-.848-.348-1.368zm4.548.192v-.396c0-.488-.164-.876-.492-1.164-.328-.296-.76-.444-1.296-.444s-.972.148-1.308.444c-.328.288-.492.676-.492 1.164v.396c0 .488.164.88.492 1.176.336.296.772.444 1.308.444.528 0 .956-.148 1.284-.444.336-.296.504-.688.504-1.176zm-2.496 7.152v-3.78h.888v1.38h4.788v-1.38h.912v4.392h-5.988c-.192 0-.34-.052-.444-.156s-.156-.256-.156-.456zm5.676-1.62h-4.788v1.452h4.788v-1.452zm11.55-8.616v10.416h-.91v-10.416h.91zm-2.363 6.42.12.756c-1.304.256-2.884.384-4.74.384h-1.308v-6.72h.912v5.94h.36c1.863 0 3.415-.12 4.655-.36zm14.24-1.548h-1.73v5.568h-.91v-10.416h.91v4.08h1.73v.768zm-3.9 1.704.12.732c-1.225.248-2.753.372-4.585.372h-1.272v-6.828h4.788v.768h-3.876v5.304h.348c1.76 0 3.252-.116 4.476-.348zm5.502.432-.288-3.72v-2.436h1.055v2.436l-.288 3.72h-.48zm.24 2.364c-.256 0-.444-.064-.564-.192a.738.738 0 0 1-.168-.504v-.156c0-.208.056-.376.168-.504.12-.128.308-.192.564-.192s.44.064.552.192c.12.128.18.296.18.504v.156c0 .208-.06.376-.18.504-.113.128-.297.192-.553.192z" fill="white"/></svg>