<svg width="200" height="135" viewBox="0 0 200 135" fill="none" xmlns="http://www.w3.org/2000/svg">
<path d="M25.6829 34.288C23.5549 34.288 21.8989 33.568 20.7149 32.128C19.5309 30.672 18.9389 28.536 18.9389 25.72C18.9389 22.904 19.5309 20.744 20.7149 19.24C21.8989 17.72 23.5549 16.96 25.6829 16.96C27.0909 16.96 28.2669 17.28 29.2109 17.92C30.1709 18.56 30.9149 19.464 31.4429 20.632L29.8109 21.616C29.4749 20.752 28.9629 20.064 28.2749 19.552C27.5869 19.024 26.7229 18.76 25.6829 18.76C24.9629 18.76 24.3149 18.896 23.7389 19.168C23.1789 19.44 22.6989 19.832 22.2989 20.344C21.9149 20.84 21.6189 21.44 21.4109 22.144C21.2029 22.832 21.0989 23.608 21.0989 24.472V26.968C21.0989 28.696 21.4989 30.048 22.2989 31.024C23.0989 32 24.2269 32.488 25.6829 32.488C26.7549 32.488 27.6509 32.216 28.3709 31.672C29.0909 31.112 29.6189 30.376 29.9549 29.464L31.5629 30.472C31.0349 31.656 30.2749 32.592 29.2829 33.28C28.2909 33.952 27.0909 34.288 25.6829 34.288ZM40.6444 34.288C39.5564 34.288 38.5724 34.104 37.6924 33.736C36.8284 33.352 36.0844 32.8 35.4604 32.08C34.8524 31.344 34.3804 30.44 34.0444 29.368C33.7084 28.28 33.5404 27.032 33.5404 25.624C33.5404 24.216 33.7084 22.976 34.0444 21.904C34.3804 20.832 34.8524 19.928 35.4604 19.192C36.0844 18.456 36.8284 17.904 37.6924 17.536C38.5724 17.152 39.5564 16.96 40.6444 16.96C41.7164 16.96 42.6924 17.152 43.5724 17.536C44.4524 17.904 45.1964 18.456 45.8044 19.192C46.4284 19.928 46.9084 20.832 47.2444 21.904C47.5804 22.976 47.7484 24.216 47.7484 25.624C47.7484 27.032 47.5804 28.28 47.2444 29.368C46.9084 30.44 46.4284 31.344 45.8044 32.08C45.1964 32.8 44.4524 33.352 43.5724 33.736C42.6924 34.104 41.7164 34.288 40.6444 34.288ZM40.6444 32.488C41.3644 32.488 42.0284 32.36 42.6364 32.104C43.2444 31.848 43.7644 31.48 44.1964 31C44.6444 30.52 44.9884 29.944 45.2284 29.272C45.4684 28.6 45.5884 27.848 45.5884 27.016V24.232C45.5884 23.4 45.4684 22.648 45.2284 21.976C44.9884 21.304 44.6444 20.728 44.1964 20.248C43.7644 19.768 43.2444 19.4 42.6364 19.144C42.0284 18.888 41.3644 18.76 40.6444 18.76C39.9244 18.76 39.2604 18.888 38.6524 19.144C38.0444 19.4 37.5164 19.768 37.0684 20.248C36.6364 20.728 36.3004 21.304 36.0604 21.976C35.8204 22.648 35.7004 23.4 35.7004 24.232V27.016C35.7004 27.848 35.8204 28.6 36.0604 29.272C36.3004 29.944 36.6364 30.52 37.0684 31C37.5164 31.48 38.0444 31.848 38.6524 32.104C39.2604 32.36 39.9244 32.488 40.6444 32.488ZM64.4286 19.888H64.3086L62.8926 22.696L58.8846 29.992L54.8766 22.696L53.4606 19.888H53.3406V34H51.3726V17.248H54.0606L58.8606 26.272H58.9806L63.8046 17.248H66.3966V34H64.4286V19.888ZM70.0572 34V32.32H72.4092V18.928H70.0572V17.248H76.7772V18.928H74.4252V32.32H76.7772V34H70.0572ZM84.5146 23.776L82.4986 20.056H82.4266V34H80.4586V17.248H82.7866L88.9066 27.472L90.9226 31.192H90.9946V17.248H92.9626V34H90.6346L84.5146 23.776ZM108.275 31.552H108.203C107.995 32.336 107.483 32.992 106.667 33.52C105.867 34.032 104.827 34.288 103.547 34.288C102.523 34.288 101.579 34.104 100.715 33.736C99.8673 33.352 99.1393 32.8 98.5313 32.08C97.9233 31.344 97.4433 30.44 97.0913 29.368C96.7553 28.28 96.5873 27.032 96.5873 25.624C96.5873 24.232 96.7553 23 97.0913 21.928C97.4273 20.84 97.9073 19.936 98.5313 19.216C99.1553 18.48 99.9073 17.92 100.787 17.536C101.667 17.152 102.643 16.96 103.715 16.96C105.219 16.96 106.475 17.296 107.483 17.968C108.491 18.64 109.267 19.528 109.811 20.632L108.155 21.64C107.771 20.744 107.195 20.04 106.427 19.528C105.675 19.016 104.771 18.76 103.715 18.76C102.979 18.76 102.307 18.896 101.699 19.168C101.091 19.424 100.563 19.792 100.115 20.272C99.6833 20.752 99.3473 21.328 99.1073 22C98.8673 22.672 98.7473 23.424 98.7473 24.256V26.968C98.7473 27.8 98.8673 28.56 99.1073 29.248C99.3473 29.92 99.6833 30.496 100.115 30.976C100.563 31.456 101.107 31.832 101.747 32.104C102.387 32.36 103.107 32.488 103.907 32.488C104.483 32.488 105.027 32.416 105.539 32.272C106.067 32.112 106.523 31.88 106.907 31.576C107.307 31.272 107.619 30.896 107.843 30.448C108.067 29.984 108.179 29.44 108.179 28.816V27.16H104.483V25.384H110.147V34H108.275V31.552ZM124.491 34.288C123.131 34.288 121.971 34.032 121.011 33.52C120.051 32.992 119.235 32.272 118.563 31.36L120.051 30.112C120.643 30.896 121.299 31.496 122.019 31.912C122.739 32.312 123.587 32.512 124.563 32.512C125.763 32.512 126.675 32.224 127.299 31.648C127.939 31.072 128.259 30.304 128.259 29.344C128.259 28.544 128.019 27.928 127.539 27.496C127.059 27.064 126.267 26.72 125.163 26.464L123.795 26.152C122.259 25.8 121.083 25.272 120.267 24.568C119.467 23.848 119.067 22.84 119.067 21.544C119.067 20.808 119.203 20.152 119.475 19.576C119.747 19 120.123 18.52 120.603 18.136C121.099 17.752 121.683 17.464 122.355 17.272C123.043 17.064 123.795 16.96 124.611 16.96C125.875 16.96 126.955 17.192 127.851 17.656C128.763 18.12 129.531 18.8 130.155 19.696L128.643 20.8C128.179 20.16 127.619 19.656 126.963 19.288C126.307 18.92 125.491 18.736 124.515 18.736C123.443 18.736 122.595 18.968 121.971 19.432C121.363 19.88 121.059 20.56 121.059 21.472C121.059 22.272 121.315 22.88 121.827 23.296C122.355 23.696 123.147 24.016 124.203 24.256L125.571 24.568C127.219 24.936 128.411 25.496 129.147 26.248C129.883 27 130.251 28 130.251 29.248C130.251 30.016 130.115 30.712 129.843 31.336C129.587 31.96 129.211 32.488 128.715 32.92C128.219 33.352 127.611 33.688 126.891 33.928C126.187 34.168 125.387 34.288 124.491 34.288ZM139.996 34.288C138.908 34.288 137.924 34.104 137.044 33.736C136.18 33.352 135.436 32.8 134.812 32.08C134.204 31.344 133.732 30.44 133.396 29.368C133.06 28.28 132.892 27.032 132.892 25.624C132.892 24.216 133.06 22.976 133.396 21.904C133.732 20.832 134.204 19.928 134.812 19.192C135.436 18.456 136.18 17.904 137.044 17.536C137.924 17.152 138.908 16.96 139.996 16.96C141.068 16.96 142.044 17.152 142.924 17.536C143.804 17.904 144.548 18.456 145.156 19.192C145.78 19.928 146.26 20.832 146.596 21.904C146.932 22.976 147.1 24.216 147.1 25.624C147.1 27.032 146.932 28.28 146.596 29.368C146.26 30.44 145.78 31.344 145.156 32.08C144.548 32.8 143.804 33.352 142.924 33.736C142.044 34.104 141.068 34.288 139.996 34.288ZM139.996 32.488C140.716 32.488 141.38 32.36 141.988 32.104C142.596 31.848 143.116 31.48 143.548 31C143.996 30.52 144.34 29.944 144.58 29.272C144.82 28.6 144.94 27.848 144.94 27.016V24.232C144.94 23.4 144.82 22.648 144.58 21.976C144.34 21.304 143.996 20.728 143.548 20.248C143.116 19.768 142.596 19.4 141.988 19.144C141.38 18.888 140.716 18.76 139.996 18.76C139.276 18.76 138.612 18.888 138.004 19.144C137.396 19.4 136.868 19.768 136.42 20.248C135.988 20.728 135.652 21.304 135.412 21.976C135.172 22.648 135.052 23.4 135.052 24.232V27.016C135.052 27.848 135.172 28.6 135.412 29.272C135.652 29.944 135.988 30.52 136.42 31C136.868 31.48 137.396 31.848 138.004 32.104C138.612 32.36 139.276 32.488 139.996 32.488ZM156.988 34.288C155.9 34.288 154.916 34.104 154.036 33.736C153.172 33.352 152.428 32.8 151.804 32.08C151.196 31.344 150.724 30.44 150.388 29.368C150.052 28.28 149.884 27.032 149.884 25.624C149.884 24.216 150.052 22.976 150.388 21.904C150.724 20.832 151.196 19.928 151.804 19.192C152.428 18.456 153.172 17.904 154.036 17.536C154.916 17.152 155.9 16.96 156.988 16.96C158.06 16.96 159.036 17.152 159.916 17.536C160.796 17.904 161.54 18.456 162.148 19.192C162.772 19.928 163.252 20.832 163.588 21.904C163.924 22.976 164.092 24.216 164.092 25.624C164.092 27.032 163.924 28.28 163.588 29.368C163.252 30.44 162.772 31.344 162.148 32.08C161.54 32.8 160.796 33.352 159.916 33.736C159.036 34.104 158.06 34.288 156.988 34.288ZM156.988 32.488C157.708 32.488 158.372 32.36 158.98 32.104C159.588 31.848 160.108 31.48 160.54 31C160.988 30.52 161.332 29.944 161.572 29.272C161.812 28.6 161.932 27.848 161.932 27.016V24.232C161.932 23.4 161.812 22.648 161.572 21.976C161.332 21.304 160.988 20.728 160.54 20.248C160.108 19.768 159.588 19.4 158.98 19.144C158.372 18.888 157.708 18.76 156.988 18.76C156.268 18.76 155.604 18.888 154.996 19.144C154.388 19.4 153.86 19.768 153.412 20.248C152.98 20.728 152.644 21.304 152.404 21.976C152.164 22.648 152.044 23.4 152.044 24.232V27.016C152.044 27.848 152.164 28.6 152.404 29.272C152.644 29.944 152.98 30.52 153.412 31C153.86 31.48 154.388 31.848 154.996 32.104C155.604 32.36 156.268 32.488 156.988 32.488ZM171.772 23.776L169.756 20.056H169.684V34H167.716V17.248H170.044L176.164 27.472L178.18 31.192H178.252V17.248H180.22V34H177.892L171.772 23.776Z" fill="white"/>
<path d="M11.0757 70.772V81.188H10.1757V75.2H7.29569V74.432H10.1757V70.772H11.0757ZM8.53169 77.348L8.66369 78.08C7.43969 78.328 5.91569 78.452 4.09169 78.452H2.83169V71.624H7.58369V72.392H3.73169V77.696H4.06769C5.81969 77.696 7.30769 77.58 8.53169 77.348ZM24.9228 70.772V81.188H24.0468V75.596H22.4268V80.9H21.5508V70.952H22.4268V74.84H24.0468V70.772H24.9228ZM18.7668 75.296C18.8708 75.296 18.9668 75.352 19.0548 75.464L20.9868 78.14L20.3388 78.692L18.3948 75.932C18.3548 75.884 18.3148 75.86 18.2748 75.86C18.2348 75.86 18.2028 75.884 18.1788 75.932C18.0108 76.34 17.7788 76.768 17.4828 77.216C17.1868 77.656 16.7868 78.204 16.2828 78.86L15.6468 78.32C16.2388 77.576 16.6908 76.936 17.0028 76.4C17.3228 75.856 17.5508 75.32 17.6868 74.792C17.8228 74.256 17.8908 73.648 17.8908 72.968V72.62H15.8988V71.852H20.7108V72.62H18.7548V72.968C18.7548 73.896 18.6268 74.72 18.3708 75.44L18.4308 75.476L18.5508 75.38C18.6388 75.324 18.7108 75.296 18.7668 75.296ZM35.3581 76.784H34.4341V70.772H35.3581V76.784ZM31.9861 76.076H26.9821V71.3H31.9861V76.076ZM31.0741 72.044H27.9061V75.32H31.0741V72.044ZM36.3421 81.02L35.7541 81.644L33.9781 79.904C33.9301 79.848 33.8741 79.82 33.8101 79.82C33.7781 79.82 33.7421 79.832 33.7021 79.856C33.5181 80.128 33.2821 80.408 32.9941 80.696C32.7061 80.992 32.3221 81.348 31.8421 81.764L30.0181 79.868C29.9621 79.812 29.9061 79.784 29.8501 79.784C29.8181 79.784 29.7741 79.804 29.7181 79.844C29.3661 80.372 28.7661 81 27.9181 81.728L27.3421 81.116C27.8781 80.668 28.2981 80.268 28.6021 79.916C28.9061 79.564 29.1221 79.216 29.2501 78.872C29.3861 78.528 29.4541 78.14 29.4541 77.708V77.324H30.3181V77.732C30.3181 78.388 30.1941 78.96 29.9461 79.448L29.9941 79.472L30.1501 79.352C30.2141 79.296 30.2901 79.268 30.3781 79.268C30.4741 79.268 30.5581 79.304 30.6301 79.376L31.9021 80.648C32.4781 80.128 32.8741 79.66 33.0901 79.244C33.3061 78.828 33.4141 78.32 33.4141 77.72V77.324H34.2781V77.768C34.2781 78.12 34.2501 78.432 34.1941 78.704C34.1381 78.976 34.0461 79.236 33.9181 79.484L33.9661 79.52L34.1221 79.388C34.2101 79.324 34.2941 79.292 34.3741 79.292C34.4541 79.292 34.5341 79.324 34.6141 79.388L36.3421 81.02ZM44.6293 72.416H38.2933V71.636H45.5293V72.488C45.5293 74.264 45.3573 75.956 45.0133 77.564L44.1253 77.42C44.4613 75.796 44.6293 74.164 44.6293 72.524V72.416ZM46.8613 79.232V80H37.0693V79.232H40.9093V75.38H41.8093V79.232H46.8613ZM60.7084 75.644H58.9804V81.212H58.0684V70.796H58.9804V74.876H60.7084V75.644ZM56.8084 77.348L56.9284 78.08C55.7044 78.328 54.1764 78.452 52.3444 78.452H51.0724V71.624H55.8604V72.392H51.9844V77.696H52.3324C54.0924 77.696 55.5844 77.58 56.8084 77.348ZM69.7517 73.076V74.66H71.4077V75.416H69.7517V76.976H68.8517V70.772H69.7517V72.32H71.4077V73.076H69.7517ZM64.1237 76.304C63.5957 76.304 63.1237 76.2 62.7077 75.992C62.2997 75.784 61.9797 75.484 61.7477 75.092C61.5157 74.7 61.3997 74.24 61.3997 73.712C61.3997 73.184 61.5157 72.724 61.7477 72.332C61.9797 71.94 62.2997 71.64 62.7077 71.432C63.1237 71.224 63.5957 71.12 64.1237 71.12C64.6517 71.12 65.1197 71.224 65.5277 71.432C65.9357 71.64 66.2557 71.94 66.4877 72.332C66.7197 72.724 66.8357 73.184 66.8357 73.712C66.8357 74.24 66.7197 74.7 66.4877 75.092C66.2557 75.484 65.9357 75.784 65.5277 75.992C65.1197 76.2 64.6517 76.304 64.1237 76.304ZM64.1237 75.56C64.6437 75.56 65.0637 75.412 65.3837 75.116C65.7117 74.82 65.8757 74.424 65.8757 73.928V73.496C65.8757 73 65.7117 72.604 65.3837 72.308C65.0637 72.012 64.6437 71.864 64.1237 71.864C63.5957 71.864 63.1677 72.012 62.8397 72.308C62.5197 72.604 62.3597 73 62.3597 73.496V73.928C62.3597 74.424 62.5197 74.82 62.8397 75.116C63.1677 75.412 63.5957 75.56 64.1237 75.56ZM69.8357 79.472C69.8357 79.912 69.7117 80.304 69.4637 80.648C69.2157 81 68.8437 81.276 68.3477 81.476C67.8517 81.676 67.2437 81.776 66.5237 81.776C65.8117 81.776 65.2037 81.676 64.6997 81.476C64.2037 81.276 63.8277 81 63.5717 80.648C63.3237 80.304 63.1997 79.912 63.1997 79.472C63.1997 79.032 63.3237 78.64 63.5717 78.296C63.8277 77.944 64.2037 77.668 64.6997 77.468C65.2037 77.268 65.8117 77.168 66.5237 77.168C67.2437 77.168 67.8517 77.268 68.3477 77.468C68.8437 77.668 69.2157 77.944 69.4637 78.296C69.7117 78.64 69.8357 79.032 69.8357 79.472ZM68.8757 79.376C68.8757 78.96 68.6797 78.612 68.2877 78.332C67.9037 78.052 67.3157 77.912 66.5237 77.912C65.7397 77.912 65.1517 78.056 64.7597 78.344C64.3677 78.624 64.1717 78.968 64.1717 79.376V79.58C64.1717 79.988 64.3677 80.332 64.7597 80.612C65.1517 80.9 65.7397 81.044 66.5237 81.044C67.3157 81.044 67.9037 80.9 68.2877 80.612C68.6797 80.332 68.8757 79.988 68.8757 79.58V79.376ZM82.1189 74.336V75.104H80.4509V78.8H79.5389V70.772H80.4509V74.336H82.1189ZM76.7909 71.864H73.5869V71.096H76.7909V71.864ZM75.1109 77.552C74.6149 77.552 74.1789 77.468 73.8029 77.3C73.4269 77.132 73.1349 76.9 72.9269 76.604C72.7269 76.308 72.6269 75.972 72.6269 75.596C72.6269 75.22 72.7149 74.892 72.8909 74.612C73.0749 74.324 73.3469 74.104 73.7069 73.952V73.892H71.8349V73.136H78.3389V73.892H76.5149V73.952C76.8749 74.104 77.1429 74.324 77.3189 74.612C77.5029 74.892 77.5949 75.22 77.5949 75.596C77.5949 75.972 77.4909 76.308 77.2829 76.604C77.0829 76.9 76.7949 77.132 76.4189 77.3C76.0429 77.468 75.6069 77.552 75.1109 77.552ZM75.0149 76.784H75.2189C75.6669 76.784 76.0309 76.664 76.3109 76.424C76.5989 76.176 76.7429 75.832 76.7429 75.392C76.7429 74.952 76.6029 74.608 76.3229 74.36C76.0429 74.112 75.6749 73.988 75.2189 73.988H75.0149C74.5589 73.988 74.1909 74.112 73.9109 74.36C73.6309 74.6 73.4909 74.944 73.4909 75.392C73.4909 75.832 73.6309 76.176 73.9109 76.424C74.1989 76.664 74.5669 76.784 75.0149 76.784ZM74.8229 80.72H80.6909V81.476H74.5109C74.3189 81.476 74.1709 81.424 74.0669 81.32C73.9629 81.216 73.9109 81.064 73.9109 80.864V78.464H74.8229V80.72ZM92.294 76.616H91.43V70.94H92.294V73.412H93.914V70.772H94.79V76.688H93.914V74.168H92.294V76.616ZM89.642 71.768H86.858V71.06H89.642V71.768ZM88.19 75.02C88.134 75.02 88.082 75.044 88.034 75.092C87.65 75.556 87.046 76.1 86.222 76.724L85.634 76.196C86.186 75.78 86.614 75.428 86.918 75.14C87.222 74.844 87.446 74.56 87.59 74.288C87.742 74.016 87.83 73.716 87.854 73.388H85.874V72.68H90.59V73.388H88.682C88.65 73.884 88.514 74.328 88.274 74.72L88.322 74.744L88.49 74.624C88.57 74.568 88.65 74.54 88.73 74.54C88.826 74.54 88.918 74.576 89.006 74.648L90.83 76.004L90.242 76.544L88.382 75.092C88.326 75.044 88.262 75.02 88.19 75.02ZM95.066 80.936V81.68H88.586C88.394 81.68 88.246 81.628 88.142 81.524C88.038 81.42 87.986 81.268 87.986 81.068V79.1H93.89V78.02H87.914V77.276H94.79V79.832H88.886V80.936H95.066ZM105.225 78.8H104.301V70.772H105.225V78.8ZM103.077 76.796C101.797 77.044 100.185 77.168 98.2413 77.168H96.9933V73.868H100.701V72.176H96.9453V71.432H101.613V74.6H97.9053V76.424H98.2413C100.049 76.424 101.621 76.308 102.957 76.076L103.077 76.796ZM105.441 80.66V81.416H99.1293C98.9373 81.416 98.7893 81.364 98.6853 81.26C98.5813 81.156 98.5293 81.004 98.5293 80.804V78.236H99.4413V80.66H105.441ZM115.864 70.772V81.188H114.952V70.772H115.864ZM110.848 75.176C110.96 75.176 111.052 75.22 111.124 75.308L113.476 78.068L112.792 78.656L110.416 75.8C110.376 75.752 110.328 75.728 110.272 75.728C110.224 75.728 110.18 75.752 110.14 75.8C109.924 76.24 109.64 76.688 109.288 77.144C108.936 77.6 108.456 78.16 107.848 78.824L107.164 78.248C107.86 77.52 108.396 76.888 108.772 76.352C109.156 75.816 109.432 75.284 109.6 74.756C109.768 74.22 109.852 73.612 109.852 72.932V72.476H107.488V71.708H113.116V72.476H110.764V72.968C110.764 73.872 110.624 74.676 110.344 75.38L110.404 75.416L110.584 75.272C110.672 75.208 110.76 75.176 110.848 75.176ZM124.968 72.644V71.612H119.112V70.94H125.844V73.304H120.06V74.324H126.144V75.008H119.172V72.644H124.968ZM127.428 75.908V76.616H117.636V75.908H127.428ZM119.136 81.104V79.292H125.112V78.284H119.064V77.576H125.964V79.964H119.988V80.996H126.276V81.716H119.736C119.544 81.716 119.396 81.664 119.292 81.56C119.188 81.456 119.136 81.304 119.136 81.104ZM135.623 71.936H132.371V71.204H139.763V71.936H136.547C136.539 72.24 136.495 72.516 136.415 72.764C136.335 73.004 136.203 73.232 136.019 73.448L136.079 73.472L136.331 73.304C136.435 73.224 136.539 73.184 136.643 73.184C136.731 73.184 136.823 73.208 136.919 73.256L140.207 74.864L139.703 75.536L136.283 73.796C136.179 73.74 136.079 73.712 135.983 73.712C135.879 73.712 135.787 73.736 135.707 73.784C135.395 74.064 134.971 74.348 134.435 74.636C133.907 74.916 133.231 75.224 132.407 75.56L131.927 74.9C132.879 74.524 133.615 74.184 134.135 73.88C134.655 73.576 135.027 73.272 135.251 72.968C135.475 72.664 135.599 72.32 135.623 71.936ZM140.963 76.412V77.204H136.583V79.328H135.671V77.204H131.171V76.412H140.963ZM133.451 80.696H139.679V81.452H133.151C132.959 81.452 132.811 81.4 132.707 81.296C132.603 81.192 132.551 81.04 132.551 80.84V78.368H133.451V80.696ZM149.886 70.772H150.798V81.188H149.886V70.772ZM142.482 71.516H143.382V74.144H146.538V71.504H147.426V78.38H142.482V71.516ZM146.538 77.612V74.912H143.382V77.612H146.538ZM157.033 71.84H153.769V71.108H161.161V71.84H157.933C157.917 72.4 157.745 72.872 157.417 73.256L157.477 73.28L157.729 73.1C157.841 73.028 157.945 72.992 158.041 72.992C158.121 72.992 158.217 73.016 158.329 73.064L161.605 74.588L161.125 75.248L157.693 73.592C157.589 73.536 157.485 73.508 157.381 73.508C157.269 73.508 157.169 73.536 157.081 73.592C156.769 73.856 156.349 74.124 155.821 74.396C155.293 74.66 154.617 74.952 153.793 75.272L153.325 74.624C154.277 74.264 155.013 73.944 155.533 73.664C156.053 73.376 156.425 73.092 156.649 72.812C156.881 72.532 157.009 72.208 157.033 71.84ZM157.921 76.808V77.768C158.929 77.824 159.697 78.032 160.225 78.392C160.753 78.752 161.017 79.216 161.017 79.784C161.017 80.184 160.881 80.536 160.609 80.84C160.345 81.152 159.945 81.396 159.409 81.572C158.881 81.748 158.233 81.836 157.465 81.836C156.697 81.836 156.045 81.748 155.509 81.572C154.981 81.396 154.581 81.152 154.309 80.84C154.045 80.536 153.913 80.184 153.913 79.784C153.913 79.216 154.177 78.752 154.705 78.392C155.233 78.032 156.001 77.824 157.009 77.768V76.808H152.569V76.04H162.361V76.808H157.921ZM157.465 78.464C156.593 78.464 155.937 78.584 155.497 78.824C155.065 79.064 154.849 79.36 154.849 79.712V79.88C154.849 80.224 155.065 80.516 155.497 80.756C155.937 80.996 156.593 81.116 157.465 81.116C158.337 81.116 158.989 80.996 159.421 80.756C159.853 80.516 160.069 80.224 160.069 79.88V79.712C160.069 79.352 159.853 79.056 159.421 78.824C158.997 78.584 158.345 78.464 157.465 78.464ZM172.257 70.772V76.568H171.333V70.772H172.257ZM163.617 73.664C163.617 73.144 163.733 72.692 163.965 72.308C164.205 71.916 164.533 71.616 164.949 71.408C165.373 71.2 165.849 71.096 166.377 71.096C166.905 71.096 167.377 71.2 167.793 71.408C168.217 71.616 168.545 71.916 168.777 72.308C169.017 72.692 169.137 73.144 169.137 73.664C169.137 74.184 169.017 74.64 168.777 75.032C168.545 75.416 168.217 75.712 167.793 75.92C167.377 76.128 166.905 76.232 166.377 76.232C165.849 76.232 165.373 76.128 164.949 75.92C164.533 75.712 164.205 75.416 163.965 75.032C163.733 74.64 163.617 74.184 163.617 73.664ZM168.165 73.856V73.46C168.165 72.972 168.001 72.584 167.673 72.296C167.345 72 166.913 71.852 166.377 71.852C165.841 71.852 165.405 72 165.069 72.296C164.741 72.584 164.576 72.972 164.576 73.46V73.856C164.576 74.344 164.741 74.736 165.069 75.032C165.405 75.328 165.841 75.476 166.377 75.476C166.905 75.476 167.333 75.328 167.661 75.032C167.997 74.736 168.165 74.344 168.165 73.856ZM165.669 81.008V77.228H166.557V78.608H171.345V77.228H172.257V81.62H166.269C166.077 81.62 165.929 81.568 165.825 81.464C165.721 81.36 165.669 81.208 165.669 81.008ZM171.345 79.388H166.557V80.84H171.345V79.388ZM182.896 70.772V81.188H181.984V70.772H182.896ZM180.532 77.192L180.652 77.948C179.348 78.204 177.768 78.332 175.912 78.332H174.604V71.612H175.516V77.552H175.876C177.74 77.552 179.292 77.432 180.532 77.192ZM194.771 75.644H193.043V81.212H192.131V70.796H193.043V74.876H194.771V75.644ZM190.871 77.348L190.991 78.08C189.767 78.328 188.239 78.452 186.407 78.452H185.135V71.624H189.923V72.392H186.047V77.696H186.395C188.155 77.696 189.647 77.58 190.871 77.348ZM196.374 77.78L196.086 74.06V71.624H197.142V74.06L196.854 77.78H196.374ZM196.614 80.144C196.358 80.144 196.17 80.08 196.05 79.952C195.938 79.824 195.882 79.656 195.882 79.448V79.292C195.882 79.084 195.938 78.916 196.05 78.788C196.17 78.66 196.358 78.596 196.614 78.596C196.87 78.596 197.054 78.66 197.166 78.788C197.286 78.916 197.346 79.084 197.346 79.292V79.448C197.346 79.656 197.286 79.824 197.166 79.952C197.054 80.08 196.87 80.144 196.614 80.144ZM15.6064 88.772V99.188H14.7184V88.772H15.6064ZM12.3184 88.952H13.1944V98.9H12.3184V93.152H10.6504V92.384H12.3184V88.952ZM9.39044 93.092C9.50244 93.092 9.58644 93.14 9.64244 93.236L11.5984 96.116L10.9144 96.692L8.99444 93.776C8.97044 93.728 8.93444 93.704 8.88644 93.704C8.83844 93.704 8.80244 93.732 8.77844 93.788C8.61044 94.228 8.37844 94.684 8.08244 95.156C7.78644 95.628 7.38644 96.2 6.88244 96.872L6.23444 96.308C6.82644 95.524 7.27844 94.852 7.59044 94.292C7.90244 93.732 8.12244 93.176 8.25044 92.624C8.38644 92.072 8.45444 91.432 8.45444 90.704V89.624H9.33044V90.692C9.33044 91.644 9.21844 92.496 8.99444 93.248L9.03044 93.284L9.16244 93.176C9.22644 93.12 9.30244 93.092 9.39044 93.092ZM27.1697 91.46V92.228H25.5017V94.976H24.5897V88.772H25.5017V91.46H27.1697ZM20.0417 92.18C19.9857 92.18 19.9337 92.208 19.8857 92.264C19.6777 92.608 19.4017 92.964 19.0577 93.332C18.7217 93.692 18.2657 94.14 17.6897 94.676L17.0177 94.088C17.6977 93.48 18.2217 92.96 18.5897 92.528C18.9577 92.096 19.2217 91.668 19.3817 91.244C19.5417 90.82 19.6217 90.34 19.6217 89.804V89.156H20.5337V89.852C20.5337 90.58 20.3937 91.244 20.1137 91.844L20.1737 91.892L20.3657 91.724C20.4537 91.652 20.5417 91.616 20.6297 91.616C20.7177 91.616 20.7977 91.652 20.8697 91.724L23.1497 93.836L22.5017 94.46L20.1977 92.252C20.1497 92.204 20.0977 92.18 20.0417 92.18ZM25.5857 97.472C25.5857 97.912 25.4617 98.304 25.2137 98.648C24.9657 99 24.5937 99.276 24.0977 99.476C23.6017 99.676 22.9937 99.776 22.2737 99.776C21.5617 99.776 20.9537 99.676 20.4497 99.476C19.9537 99.276 19.5777 99 19.3217 98.648C19.0737 98.304 18.9497 97.912 18.9497 97.472C18.9497 97.032 19.0737 96.64 19.3217 96.296C19.5777 95.944 19.9537 95.668 20.4497 95.468C20.9537 95.268 21.5617 95.168 22.2737 95.168C22.9937 95.168 23.6017 95.268 24.0977 95.468C24.5937 95.668 24.9657 95.944 25.2137 96.296C25.4617 96.64 25.5857 97.032 25.5857 97.472ZM24.6257 97.376C24.6257 96.96 24.4297 96.612 24.0377 96.332C23.6537 96.052 23.0657 95.912 22.2737 95.912C21.4897 95.912 20.9017 96.056 20.5097 96.344C20.1177 96.624 19.9217 96.968 19.9217 97.376V97.58C19.9217 97.988 20.1177 98.332 20.5097 98.612C20.9017 98.9 21.4897 99.044 22.2737 99.044C23.0657 99.044 23.6537 98.9 24.0377 98.612C24.4297 98.332 24.6257 97.988 24.6257 97.58V97.376ZM40.3808 97.232V98H30.5888V97.232H35.0288V94.52H31.9328V89.42H39.0368V94.52H35.9408V97.232H40.3808ZM32.8448 93.752H38.1248V90.188H32.8448V93.752ZM49.7 93.176H42.776V89.18H49.604V89.948H43.676V92.408H49.7V93.176ZM51.08 94.46V95.252H41.288V94.46H51.08ZM43.604 98.636H49.82V99.404H43.292C43.1 99.404 42.952 99.352 42.848 99.248C42.744 99.144 42.692 98.992 42.692 98.792V96.26H43.604V98.636ZM64.0752 88.772V99.188H63.1992V93.596H61.5912V98.9H60.7272V88.952H61.5912V92.84H63.1992V88.772H64.0752ZM59.8392 90.572H54.9312V89.816H59.8392V90.572ZM60.0432 95.48L60.1392 96.188C59.4832 96.316 58.6832 96.412 57.7392 96.476C56.7952 96.54 55.8152 96.572 54.7992 96.572L54.7152 95.828C55.0112 95.828 55.4472 95.82 56.0232 95.804L55.7232 91.532L56.5872 91.46L56.8152 95.78C57.0792 95.772 57.4472 95.752 57.9192 95.72L58.2192 91.448L59.0832 91.532L58.7232 95.66C59.2112 95.612 59.6512 95.552 60.0432 95.48ZM73.5984 93.104H71.4144V92.36H73.5984V90.896H71.4144V90.152H73.5984V88.772H74.5104V96.68H73.5984V93.104ZM68.6424 92.54C68.5864 92.54 68.5384 92.564 68.4984 92.612C68.2904 92.98 68.0184 93.356 67.6824 93.74C67.3544 94.124 66.8984 94.608 66.3144 95.192L65.6424 94.604C66.3144 93.956 66.8304 93.404 67.1904 92.948C67.5584 92.492 67.8224 92.04 67.9824 91.592C68.1424 91.136 68.2224 90.616 68.2224 90.032V89.276H69.1344V90.068C69.1344 90.876 68.9944 91.588 68.7144 92.204L68.7624 92.228L68.9544 92.072C69.0504 92 69.1384 91.964 69.2184 91.964C69.3144 91.964 69.3984 92.004 69.4704 92.084L71.7384 94.376L71.0784 95L68.7864 92.612C68.7464 92.564 68.6984 92.54 68.6424 92.54ZM74.7264 98.66V99.416H68.4384C68.2464 99.416 68.0984 99.364 67.9944 99.26C67.8904 99.156 67.8384 99.004 67.8384 98.804V95.876H68.7624V98.66H74.7264ZM84.2616 88.772H85.1616V99.188H84.2616V88.772ZM76.7736 91.892C76.7736 91.396 76.8976 90.96 77.1456 90.584C77.3936 90.2 77.7336 89.908 78.1656 89.708C78.5976 89.5 79.0856 89.396 79.6296 89.396C80.1736 89.396 80.6616 89.5 81.0936 89.708C81.5256 89.908 81.8656 90.2 82.1136 90.584C82.3616 90.96 82.4856 91.396 82.4856 91.892C82.4856 92.388 82.3616 92.824 82.1136 93.2C81.8656 93.576 81.5256 93.868 81.0936 94.076C80.6616 94.276 80.1736 94.376 79.6296 94.376C79.0856 94.376 78.5976 94.276 78.1656 94.076C77.7336 93.868 77.3936 93.576 77.1456 93.2C76.8976 92.824 76.7736 92.388 76.7736 91.892ZM81.5256 92.036V91.748C81.5256 91.268 81.3496 90.88 80.9976 90.584C80.6456 90.288 80.1896 90.14 79.6296 90.14C79.0696 90.14 78.6136 90.288 78.2616 90.584C77.9096 90.88 77.7336 91.268 77.7336 91.748V92.036C77.7336 92.516 77.9096 92.904 78.2616 93.2C78.6136 93.496 79.0696 93.644 79.6296 93.644C80.1896 93.644 80.6456 93.496 80.9976 93.2C81.3496 92.904 81.5256 92.516 81.5256 92.036ZM76.2696 96.224C77.6296 96.224 78.9416 96.192 80.2056 96.128C81.4696 96.064 82.5416 95.964 83.4216 95.828L83.5176 96.56C82.6136 96.704 81.5256 96.816 80.2536 96.896C78.9896 96.968 77.6896 97.004 76.3536 97.004L76.2696 96.224ZM99.8608 92.288V93.056H98.2768V96.776H97.3768V88.772H98.2768V92.288H99.8608ZM96.5488 95.012C95.6608 95.156 94.5968 95.264 93.3568 95.336C92.1248 95.408 90.8568 95.444 89.5528 95.444L89.4688 94.688C90.3728 94.688 91.3648 94.668 92.4448 94.628V93.368C91.7488 93.304 91.1888 93.088 90.7648 92.72C90.3488 92.344 90.1408 91.864 90.1408 91.28C90.1408 90.856 90.2568 90.484 90.4888 90.164C90.7288 89.844 91.0568 89.6 91.4728 89.432C91.8888 89.256 92.3608 89.168 92.8888 89.168C93.4168 89.168 93.8888 89.256 94.3048 89.432C94.7208 89.6 95.0448 89.844 95.2768 90.164C95.5088 90.484 95.6248 90.856 95.6248 91.28C95.6248 91.864 95.4128 92.344 94.9888 92.72C94.5728 93.088 94.0168 93.304 93.3208 93.368V94.592C94.6168 94.512 95.6648 94.412 96.4648 94.292L96.5488 95.012ZM92.8888 92.696C93.4248 92.696 93.8608 92.58 94.1968 92.348C94.5328 92.108 94.7008 91.788 94.7008 91.388V91.184C94.7008 90.784 94.5328 90.468 94.1968 90.236C93.8608 89.996 93.4248 89.876 92.8888 89.876C92.3448 89.876 91.9048 89.996 91.5688 90.236C91.2328 90.468 91.0648 90.784 91.0648 91.184V91.388C91.0648 91.788 91.2328 92.108 91.5688 92.348C91.9048 92.58 92.3448 92.696 92.8888 92.696ZM92.5048 98.66H98.4928V99.416H92.1928C92.0008 99.416 91.8528 99.364 91.7488 99.26C91.6448 99.156 91.5928 99.004 91.5928 98.804V96.272H92.5048V98.66ZM108.532 91.808H106.24V91.04H108.532V88.772H109.444V94.976H108.532V91.808ZM103.648 92.168C103.592 92.168 103.544 92.192 103.504 92.24C103.288 92.6 103.004 92.972 102.652 93.356C102.308 93.732 101.852 94.184 101.284 94.712L100.612 94.112C101.292 93.504 101.816 92.984 102.184 92.552C102.552 92.112 102.816 91.68 102.976 91.256C103.144 90.824 103.228 90.336 103.228 89.792V89.132H104.14V89.84C104.14 90.584 104.004 91.256 103.732 91.856L103.78 91.88L103.984 91.712C104.072 91.64 104.16 91.604 104.248 91.604C104.336 91.604 104.416 91.64 104.488 91.712L106.78 93.836L106.12 94.472L103.804 92.24C103.756 92.192 103.704 92.168 103.648 92.168ZM109.504 97.472C109.504 97.912 109.376 98.304 109.12 98.648C108.872 99 108.496 99.276 107.992 99.476C107.488 99.676 106.872 99.776 106.144 99.776C105.416 99.776 104.796 99.676 104.284 99.476C103.78 99.276 103.4 99 103.144 98.648C102.896 98.304 102.772 97.912 102.772 97.472C102.772 97.032 102.896 96.64 103.144 96.296C103.4 95.944 103.78 95.668 104.284 95.468C104.796 95.268 105.416 95.168 106.144 95.168C106.872 95.168 107.488 95.268 107.992 95.468C108.496 95.668 108.872 95.944 109.12 96.296C109.376 96.64 109.504 97.032 109.504 97.472ZM108.532 97.376C108.532 96.96 108.332 96.612 107.932 96.332C107.54 96.052 106.944 95.912 106.144 95.912C105.344 95.912 104.744 96.056 104.344 96.344C103.944 96.624 103.744 96.968 103.744 97.376V97.58C103.744 97.988 103.944 98.332 104.344 98.612C104.744 98.9 105.344 99.044 106.144 99.044C106.944 99.044 107.54 98.9 107.932 98.612C108.332 98.332 108.532 97.988 108.532 97.58V97.376ZM112.451 90.692C112.451 90.108 112.751 89.644 113.351 89.3C113.951 88.948 114.851 88.772 116.051 88.772C117.251 88.772 118.151 88.948 118.751 89.3C119.351 89.644 119.651 90.108 119.651 90.692C119.651 91.276 119.351 91.744 118.751 92.096C118.151 92.448 117.251 92.624 116.051 92.624C114.851 92.624 113.951 92.448 113.351 92.096C112.751 91.744 112.451 91.276 112.451 90.692ZM118.679 90.752V90.62C118.679 90.276 118.459 89.996 118.019 89.78C117.587 89.556 116.931 89.444 116.051 89.444C115.171 89.444 114.511 89.556 114.071 89.78C113.639 89.996 113.423 90.276 113.423 90.62V90.752C113.423 91.096 113.639 91.38 114.071 91.604C114.511 91.82 115.171 91.928 116.051 91.928C116.931 91.928 117.587 91.82 118.019 91.604C118.459 91.38 118.679 91.096 118.679 90.752ZM120.947 93.452V94.22H111.155V93.452H120.947ZM112.679 99.068V97.1H118.595V95.972H112.607V95.228H119.471V97.796H113.555V98.936H119.783V99.68H113.279C113.087 99.68 112.939 99.628 112.835 99.524C112.731 99.42 112.679 99.268 112.679 99.068ZM133.942 88.772V99.188H133.066V88.772H133.942ZM130.678 88.952H131.53V98.9H130.678V93.164H129.01V92.408H130.678V88.952ZM127.762 93.296C127.858 93.296 127.95 93.352 128.038 93.464L129.946 96.14L129.298 96.692L127.378 93.932C127.338 93.884 127.298 93.86 127.258 93.86C127.218 93.86 127.186 93.884 127.162 93.932C126.994 94.348 126.762 94.78 126.466 95.228C126.178 95.668 125.786 96.212 125.29 96.86L124.654 96.32C125.238 95.576 125.686 94.936 125.998 94.4C126.31 93.856 126.534 93.32 126.67 92.792C126.806 92.256 126.874 91.648 126.874 90.968V90.62H124.906V89.852H129.67V90.62H127.738V90.968C127.738 91.896 127.61 92.72 127.354 93.44L127.414 93.476L127.534 93.38C127.622 93.324 127.698 93.296 127.762 93.296ZM142.83 89.876H136.698V89.108H143.718V89.696C143.718 90.744 143.594 91.816 143.346 92.912L142.482 92.792C142.706 91.848 142.822 90.876 142.83 89.876ZM145.182 93.752V94.544H135.39V93.752H139.41V91.676H140.31V93.752H145.182ZM143.838 97.688C143.838 98.104 143.702 98.472 143.43 98.792C143.166 99.12 142.766 99.376 142.23 99.56C141.702 99.744 141.054 99.836 140.286 99.836C139.518 99.836 138.866 99.744 138.33 99.56C137.802 99.376 137.402 99.12 137.13 98.792C136.866 98.472 136.734 98.104 136.734 97.688C136.734 97.272 136.866 96.904 137.13 96.584C137.402 96.264 137.802 96.012 138.33 95.828C138.866 95.644 139.518 95.552 140.286 95.552C141.054 95.552 141.702 95.644 142.23 95.828C142.766 96.012 143.166 96.264 143.43 96.584C143.702 96.904 143.838 97.272 143.838 97.688ZM142.878 97.604C142.878 97.228 142.662 96.912 142.23 96.656C141.806 96.4 141.158 96.272 140.286 96.272C139.422 96.272 138.77 96.4 138.33 96.656C137.898 96.912 137.682 97.228 137.682 97.604V97.784C137.682 98.152 137.898 98.464 138.33 98.72C138.77 98.976 139.422 99.104 140.286 99.104C141.158 99.104 141.806 98.976 142.23 98.72C142.662 98.464 142.878 98.152 142.878 97.784V97.604ZM156.193 93.836H154.501V99.212H153.589V88.796H154.501V93.068H156.193V93.836ZM151.033 90.14H147.625V89.36H151.033V90.14ZM146.029 91.58H152.449V92.324H150.673V92.396C151.401 92.756 151.765 93.448 151.765 94.472C151.765 94.992 151.657 95.444 151.441 95.828C151.225 96.204 150.925 96.492 150.541 96.692C150.165 96.892 149.745 96.992 149.281 96.992C148.817 96.992 148.393 96.892 148.009 96.692C147.633 96.492 147.337 96.204 147.121 95.828C146.905 95.444 146.797 94.992 146.797 94.472C146.797 93.448 147.161 92.756 147.889 92.396V92.324H146.029V91.58ZM150.877 94.076C150.877 93.54 150.733 93.132 150.445 92.852C150.157 92.564 149.769 92.42 149.281 92.42C148.801 92.42 148.413 92.564 148.117 92.852C147.829 93.14 147.685 93.548 147.685 94.076V94.568C147.685 95.088 147.833 95.496 148.129 95.792C148.425 96.08 148.809 96.224 149.281 96.224C149.753 96.224 150.137 96.08 150.433 95.792C150.729 95.496 150.877 95.088 150.877 94.568V94.076ZM164.804 88.772H165.716V99.188H164.804V88.772ZM157.256 96.32C158.36 95.752 159.204 95.232 159.788 94.76C160.372 94.288 160.78 93.788 161.012 93.26C161.252 92.732 161.372 92.08 161.372 91.304V90.404H157.556V89.624H162.284V91.292C162.284 92.18 162.148 92.932 161.876 93.548C161.612 94.164 161.16 94.74 160.52 95.276C159.888 95.804 158.98 96.384 157.796 97.016L157.256 96.32ZM179.263 88.772V99.188H178.363V88.772H179.263ZM170.947 91.316C170.947 90.876 171.067 90.492 171.307 90.164C171.555 89.828 171.895 89.572 172.327 89.396C172.759 89.212 173.247 89.12 173.791 89.12C174.335 89.12 174.819 89.212 175.243 89.396C175.675 89.572 176.011 89.828 176.251 90.164C176.499 90.492 176.623 90.876 176.623 91.316C176.623 91.764 176.499 92.156 176.251 92.492C176.011 92.82 175.675 93.076 175.243 93.26C174.819 93.436 174.335 93.524 173.791 93.524C173.239 93.524 172.747 93.436 172.315 93.26C171.891 93.076 171.555 92.82 171.307 92.492C171.067 92.156 170.947 91.764 170.947 91.316ZM171.883 91.436C171.883 91.844 172.059 92.172 172.411 92.42C172.763 92.668 173.223 92.792 173.791 92.792C174.351 92.792 174.803 92.668 175.147 92.42C175.499 92.172 175.675 91.844 175.675 91.436V91.22C175.675 90.804 175.499 90.472 175.147 90.224C174.803 89.976 174.351 89.852 173.791 89.852C173.223 89.852 172.763 89.976 172.411 90.224C172.059 90.472 171.883 90.804 171.883 91.22V91.436ZM177.583 94.988C176.591 95.14 175.491 95.252 174.283 95.324V99.092H173.371V95.372C172.307 95.412 171.323 95.432 170.419 95.432L170.347 94.664C171.707 94.664 173.019 94.632 174.283 94.568C175.547 94.504 176.619 94.404 177.499 94.268L177.583 94.988ZM190.274 88.772V99.188H189.386V93.752H187.826V98.9H186.95V88.952H187.826V92.996H189.386V88.772H190.274ZM185.294 90.332H182.21V89.588H185.294V90.332ZM180.95 91.676H186.374V92.396H184.946V92.456C185.578 92.8 185.894 93.452 185.894 94.412C185.894 95.164 185.69 95.752 185.282 96.176C184.882 96.592 184.354 96.8 183.698 96.8C183.05 96.8 182.522 96.592 182.114 96.176C181.714 95.752 181.514 95.164 181.514 94.412C181.514 93.452 181.826 92.8 182.45 92.456V92.396H180.95V91.676ZM185.03 93.98C185.03 93.5 184.91 93.132 184.67 92.876C184.43 92.62 184.106 92.492 183.698 92.492C183.29 92.492 182.966 92.62 182.726 92.876C182.494 93.132 182.378 93.5 182.378 93.98V94.556C182.378 95.028 182.498 95.396 182.738 95.66C182.986 95.924 183.306 96.056 183.698 96.056C184.09 96.056 184.41 95.924 184.658 95.66C184.906 95.396 185.03 95.028 185.03 94.556V93.98ZM7.92264 116V107.624H8.93064V115.112H12.4946V116H7.92264ZM16.0612 116.144C15.6452 116.144 15.2652 116.068 14.9212 115.916C14.5772 115.764 14.2812 115.548 14.0332 115.268C13.7932 114.98 13.6052 114.64 13.4692 114.248C13.3332 113.848 13.2652 113.4 13.2652 112.904C13.2652 112.416 13.3332 111.972 13.4692 111.572C13.6052 111.172 13.7932 110.832 14.0332 110.552C14.2812 110.264 14.5772 110.044 14.9212 109.892C15.2652 109.74 15.6452 109.664 16.0612 109.664C16.4772 109.664 16.8532 109.74 17.1892 109.892C17.5332 110.044 17.8292 110.264 18.0772 110.552C18.3252 110.832 18.5172 111.172 18.6532 111.572C18.7892 111.972 18.8572 112.416 18.8572 112.904C18.8572 113.4 18.7892 113.848 18.6532 114.248C18.5172 114.64 18.3252 114.98 18.0772 115.268C17.8292 115.548 17.5332 115.764 17.1892 115.916C16.8532 116.068 16.4772 116.144 16.0612 116.144ZM16.0612 115.292C16.5812 115.292 17.0052 115.132 17.3332 114.812C17.6612 114.492 17.8252 114.004 17.8252 113.348V112.46C17.8252 111.804 17.6612 111.316 17.3332 110.996C17.0052 110.676 16.5812 110.516 16.0612 110.516C15.5412 110.516 15.1172 110.676 14.7892 110.996C14.4612 111.316 14.2972 111.804 14.2972 112.46V113.348C14.2972 114.004 14.4612 114.492 14.7892 114.812C15.1172 115.132 15.5412 115.292 16.0612 115.292ZM22.776 116.144C22.36 116.144 21.98 116.068 21.636 115.916C21.292 115.764 20.996 115.548 20.748 115.268C20.508 114.98 20.32 114.64 20.184 114.248C20.048 113.848 19.98 113.4 19.98 112.904C19.98 112.416 20.048 111.972 20.184 111.572C20.32 111.172 20.508 110.832 20.748 110.552C20.996 110.264 21.292 110.044 21.636 109.892C21.98 109.74 22.36 109.664 22.776 109.664C23.192 109.664 23.568 109.74 23.904 109.892C24.248 110.044 24.544 110.264 24.792 110.552C25.04 110.832 25.232 111.172 25.368 111.572C25.504 111.972 25.572 112.416 25.572 112.904C25.572 113.4 25.504 113.848 25.368 114.248C25.232 114.64 25.04 114.98 24.792 115.268C24.544 115.548 24.248 115.764 23.904 115.916C23.568 116.068 23.192 116.144 22.776 116.144ZM22.776 115.292C23.296 115.292 23.72 115.132 24.048 114.812C24.376 114.492 24.54 114.004 24.54 113.348V112.46C24.54 111.804 24.376 111.316 24.048 110.996C23.72 110.676 23.296 110.516 22.776 110.516C22.256 110.516 21.832 110.676 21.504 110.996C21.176 111.316 21.012 111.804 21.012 112.46V113.348C21.012 114.004 21.176 114.492 21.504 114.812C21.832 115.132 22.256 115.292 22.776 115.292ZM27.1509 107.12H28.1109V112.748H28.1589L29.1069 111.692L30.8589 109.808H32.0229L29.7309 112.256L32.2509 116H31.0869L29.0349 112.844L28.1109 113.792V116H27.1509V107.12ZM36.4332 116.144C35.3692 116.144 34.5412 115.784 33.9492 115.064C33.3572 114.336 33.0612 113.268 33.0612 111.86C33.0612 110.452 33.3572 109.372 33.9492 108.62C34.5412 107.86 35.3692 107.48 36.4332 107.48C37.1372 107.48 37.7252 107.64 38.1972 107.96C38.6772 108.28 39.0492 108.732 39.3132 109.316L38.4972 109.808C38.3292 109.376 38.0732 109.032 37.7292 108.776C37.3852 108.512 36.9532 108.38 36.4332 108.38C36.0732 108.38 35.7492 108.448 35.4612 108.584C35.1812 108.72 34.9412 108.916 34.7412 109.172C34.5492 109.42 34.4012 109.72 34.2972 110.072C34.1932 110.416 34.1412 110.804 34.1412 111.236V112.484C34.1412 113.348 34.3412 114.024 34.7412 114.512C35.1412 115 35.7052 115.244 36.4332 115.244C36.9692 115.244 37.4172 115.108 37.7772 114.836C38.1372 114.556 38.4012 114.188 38.5692 113.732L39.3732 114.236C39.1092 114.828 38.7292 115.296 38.2332 115.64C37.7372 115.976 37.1372 116.144 36.4332 116.144ZM41.8584 116C41.5224 116 41.2664 115.908 41.0904 115.724C40.9224 115.532 40.8384 115.292 40.8384 115.004V107.12H41.7984V115.16H42.7104V116H41.8584ZM46.4479 116.144C46.0319 116.144 45.6519 116.068 45.3079 115.916C44.9639 115.764 44.6679 115.548 44.4199 115.268C44.1799 114.98 43.9919 114.64 43.8559 114.248C43.7199 113.848 43.6519 113.4 43.6519 112.904C43.6519 112.416 43.7199 111.972 43.8559 111.572C43.9919 111.172 44.1799 110.832 44.4199 110.552C44.6679 110.264 44.9639 110.044 45.3079 109.892C45.6519 109.74 46.0319 109.664 46.4479 109.664C46.8639 109.664 47.2399 109.74 47.5759 109.892C47.9199 110.044 48.2159 110.264 48.4639 110.552C48.7119 110.832 48.9039 111.172 49.0399 111.572C49.1759 111.972 49.2439 112.416 49.2439 112.904C49.2439 113.4 49.1759 113.848 49.0399 114.248C48.9039 114.64 48.7119 114.98 48.4639 115.268C48.2159 115.548 47.9199 115.764 47.5759 115.916C47.2399 116.068 46.8639 116.144 46.4479 116.144ZM46.4479 115.292C46.9679 115.292 47.3919 115.132 47.7199 114.812C48.0479 114.492 48.2119 114.004 48.2119 113.348V112.46C48.2119 111.804 48.0479 111.316 47.7199 110.996C47.3919 110.676 46.9679 110.516 46.4479 110.516C45.9279 110.516 45.5039 110.676 45.1759 110.996C44.8479 111.316 44.6839 111.804 44.6839 112.46V113.348C44.6839 114.004 44.8479 114.492 45.1759 114.812C45.5039 115.132 45.9279 115.292 46.4479 115.292ZM54.6387 114.992H54.5907C54.5267 115.136 54.4467 115.28 54.3507 115.424C54.2627 115.56 54.1507 115.684 54.0147 115.796C53.8787 115.9 53.7147 115.984 53.5227 116.048C53.3307 116.112 53.1067 116.144 52.8507 116.144C52.2107 116.144 51.7027 115.94 51.3267 115.532C50.9507 115.116 50.7627 114.532 50.7627 113.78V109.808H51.7227V113.612C51.7227 114.724 52.1947 115.28 53.1387 115.28C53.3307 115.28 53.5147 115.256 53.6907 115.208C53.8747 115.16 54.0347 115.088 54.1707 114.992C54.3147 114.896 54.4267 114.776 54.5067 114.632C54.5947 114.48 54.6387 114.3 54.6387 114.092V109.808H55.5987V116H54.6387V114.992ZM61.603 114.992H61.555C61.179 115.76 60.575 116.144 59.743 116.144C59.359 116.144 59.011 116.068 58.699 115.916C58.387 115.764 58.119 115.548 57.895 115.268C57.679 114.988 57.511 114.648 57.391 114.248C57.279 113.848 57.223 113.4 57.223 112.904C57.223 112.408 57.279 111.96 57.391 111.56C57.511 111.16 57.679 110.82 57.895 110.54C58.119 110.26 58.387 110.044 58.699 109.892C59.011 109.74 59.359 109.664 59.743 109.664C60.175 109.664 60.543 109.76 60.847 109.952C61.159 110.136 61.395 110.424 61.555 110.816H61.603V107.12H62.563V116H61.603V114.992ZM60.007 115.28C60.223 115.28 60.427 115.252 60.619 115.196C60.819 115.14 60.991 115.06 61.135 114.956C61.279 114.844 61.391 114.712 61.471 114.56C61.559 114.4 61.603 114.22 61.603 114.02V111.716C61.603 111.548 61.559 111.392 61.471 111.248C61.391 111.096 61.279 110.968 61.135 110.864C60.991 110.76 60.819 110.68 60.619 110.624C60.427 110.56 60.223 110.528 60.007 110.528C59.463 110.528 59.035 110.7 58.723 111.044C58.411 111.38 58.255 111.824 58.255 112.376V113.432C58.255 113.984 58.411 114.432 58.723 114.776C59.035 115.112 59.463 115.28 60.007 115.28ZM72.44 110.924H65.54V107.156H66.44V110.168H72.44V110.924ZM73.832 112.256V113.036H64.04V112.256H73.832ZM66.356 116.636H72.572V117.404H66.044C65.852 117.404 65.704 117.352 65.6 117.248C65.496 117.144 65.444 116.992 65.444 116.792V114.164H66.356V116.636ZM86.5151 106.772V117.188H85.6151V106.772H86.5151ZM82.7831 107.912H79.5671V107.18H82.7831V107.912ZM80.7191 109.712H78.3551V108.98H83.9591V109.712H81.6191C81.5951 110.224 81.4471 110.68 81.1751 111.08L81.2351 111.116L81.4631 110.96C81.5591 110.888 81.6551 110.852 81.7511 110.852C81.8471 110.852 81.9351 110.88 82.0151 110.936L84.1991 112.292L83.5631 112.88L81.2951 111.416C81.2471 111.376 81.1791 111.356 81.0911 111.356C81.0031 111.356 80.9351 111.376 80.8871 111.416C80.6711 111.648 80.3911 111.892 80.0471 112.148C79.7031 112.396 79.2551 112.684 78.7031 113.012L78.0671 112.448C78.7311 112.08 79.2471 111.756 79.6151 111.476C79.9831 111.188 80.2511 110.908 80.4191 110.636C80.5951 110.356 80.6951 110.048 80.7191 109.712ZM84.7511 114.08L84.8351 114.8C83.9311 114.944 82.8431 115.056 81.5711 115.136C80.3071 115.208 79.0071 115.244 77.6711 115.244L77.5871 114.476C78.5311 114.476 79.5711 114.456 80.7071 114.416V112.712H81.5831V114.38C82.8791 114.3 83.9351 114.2 84.7511 114.08ZM96.3504 110.072H94.0584V109.304H96.3504V106.772H97.2624V114.68H96.3504V110.072ZM91.4424 110.528C91.3864 110.528 91.3384 110.552 91.2984 110.6C91.0984 110.968 90.8264 111.348 90.4824 111.74C90.1384 112.132 89.6784 112.612 89.1024 113.18L88.4304 112.58C89.1104 111.94 89.6304 111.392 89.9904 110.936C90.3504 110.48 90.6104 110.028 90.7704 109.58C90.9384 109.124 91.0224 108.608 91.0224 108.032V107.276H91.9464V108.068C91.9464 108.868 91.8064 109.572 91.5264 110.18L91.5864 110.228L91.7784 110.06C91.8664 109.988 91.9504 109.952 92.0304 109.952C92.1184 109.952 92.2024 109.992 92.2824 110.072L94.5624 112.364L93.9024 112.988L91.5984 110.6C91.5504 110.552 91.4984 110.528 91.4424 110.528ZM97.4784 116.66V117.416H91.1904C90.9984 117.416 90.8504 117.364 90.7464 117.26C90.6424 117.156 90.5904 117.004 90.5904 116.804V113.828H91.5144V116.66H97.4784ZM100.27 108.692C100.27 108.108 100.57 107.644 101.17 107.3C101.77 106.948 102.67 106.772 103.87 106.772C105.07 106.772 105.97 106.948 106.57 107.3C107.17 107.644 107.47 108.108 107.47 108.692C107.47 109.276 107.17 109.744 106.57 110.096C105.97 110.448 105.07 110.624 103.87 110.624C102.67 110.624 101.77 110.448 101.17 110.096C100.57 109.744 100.27 109.276 100.27 108.692ZM106.498 108.752V108.62C106.498 108.276 106.278 107.996 105.838 107.78C105.406 107.556 104.75 107.444 103.87 107.444C102.99 107.444 102.33 107.556 101.89 107.78C101.458 107.996 101.242 108.276 101.242 108.62V108.752C101.242 109.096 101.458 109.38 101.89 109.604C102.33 109.82 102.99 109.928 103.87 109.928C104.75 109.928 105.406 109.82 105.838 109.604C106.278 109.38 106.498 109.096 106.498 108.752ZM108.766 111.452V112.22H98.9736V111.452H108.766ZM100.498 117.068V115.1H106.414V113.972H100.426V113.228H107.29V115.796H101.374V116.936H107.602V117.68H101.098C100.906 117.68 100.758 117.628 100.654 117.524C100.55 117.42 100.498 117.268 100.498 117.068ZM122.613 111.644H120.885V117.212H119.973V106.796H120.885V110.876H122.613V111.644ZM118.713 113.348L118.833 114.08C117.609 114.328 116.081 114.452 114.249 114.452H112.977V107.624H117.765V108.392H113.889V113.696H114.237C115.997 113.696 117.489 113.58 118.713 113.348ZM133.312 111.836H131.62V117.212H130.708V106.796H131.62V111.068H133.312V111.836ZM128.152 108.14H124.744V107.36H128.152V108.14ZM123.148 109.58H129.568V110.324H127.792V110.396C128.52 110.756 128.884 111.448 128.884 112.472C128.884 112.992 128.776 113.444 128.56 113.828C128.344 114.204 128.044 114.492 127.66 114.692C127.284 114.892 126.864 114.992 126.4 114.992C125.936 114.992 125.512 114.892 125.128 114.692C124.752 114.492 124.456 114.204 124.24 113.828C124.024 113.444 123.916 112.992 123.916 112.472C123.916 111.448 124.28 110.756 125.008 110.396V110.324H123.148V109.58ZM127.996 112.076C127.996 111.54 127.852 111.132 127.564 110.852C127.276 110.564 126.888 110.42 126.4 110.42C125.92 110.42 125.532 110.564 125.236 110.852C124.948 111.14 124.804 111.548 124.804 112.076V112.568C124.804 113.088 124.952 113.496 125.248 113.792C125.544 114.08 125.928 114.224 126.4 114.224C126.872 114.224 127.256 114.08 127.552 113.792C127.848 113.496 127.996 113.088 127.996 112.568V112.076ZM142.307 110.924H135.407V107.156H136.307V110.168H142.307V110.924ZM143.699 112.256V113.036H133.907V112.256H143.699ZM136.223 116.636H142.439V117.404H135.911C135.719 117.404 135.571 117.352 135.467 117.248C135.363 117.144 135.311 116.992 135.311 116.792V114.164H136.223V116.636ZM151.906 107.84H148.642V107.108H156.034V107.84H152.806C152.79 108.4 152.618 108.872 152.29 109.256L152.35 109.28L152.602 109.1C152.714 109.028 152.818 108.992 152.914 108.992C152.994 108.992 153.09 109.016 153.202 109.064L156.478 110.588L155.998 111.248L152.566 109.592C152.462 109.536 152.358 109.508 152.254 109.508C152.142 109.508 152.042 109.536 151.954 109.592C151.642 109.856 151.222 110.124 150.694 110.396C150.166 110.66 149.49 110.952 148.666 111.272L148.198 110.624C149.15 110.264 149.886 109.944 150.406 109.664C150.926 109.376 151.298 109.092 151.522 108.812C151.754 108.532 151.882 108.208 151.906 107.84ZM152.794 112.808V113.768C153.802 113.824 154.57 114.032 155.098 114.392C155.626 114.752 155.89 115.216 155.89 115.784C155.89 116.184 155.754 116.536 155.482 116.84C155.218 117.152 154.818 117.396 154.282 117.572C153.754 117.748 153.106 117.836 152.338 117.836C151.57 117.836 150.918 117.748 150.382 117.572C149.854 117.396 149.454 117.152 149.182 116.84C148.918 116.536 148.786 116.184 148.786 115.784C148.786 115.216 149.05 114.752 149.578 114.392C150.106 114.032 150.874 113.824 151.882 113.768V112.808H147.442V112.04H157.234V112.808H152.794ZM152.338 114.464C151.466 114.464 150.81 114.584 150.37 114.824C149.938 115.064 149.722 115.36 149.722 115.712V115.88C149.722 116.224 149.938 116.516 150.37 116.756C150.81 116.996 151.466 117.116 152.338 117.116C153.21 117.116 153.862 116.996 154.294 116.756C154.726 116.516 154.942 116.224 154.942 115.88V115.712C154.942 115.352 154.726 115.056 154.294 114.824C153.87 114.584 153.218 114.464 152.338 114.464ZM167.13 106.772V112.568H166.206V106.772H167.13ZM158.49 109.664C158.49 109.144 158.606 108.692 158.838 108.308C159.078 107.916 159.406 107.616 159.822 107.408C160.246 107.2 160.722 107.096 161.25 107.096C161.778 107.096 162.25 107.2 162.666 107.408C163.09 107.616 163.418 107.916 163.65 108.308C163.89 108.692 164.01 109.144 164.01 109.664C164.01 110.184 163.89 110.64 163.65 111.032C163.418 111.416 163.09 111.712 162.666 111.92C162.25 112.128 161.778 112.232 161.25 112.232C160.722 112.232 160.246 112.128 159.822 111.92C159.406 111.712 159.078 111.416 158.838 111.032C158.606 110.64 158.49 110.184 158.49 109.664ZM163.038 109.856V109.46C163.038 108.972 162.874 108.584 162.546 108.296C162.218 108 161.786 107.852 161.25 107.852C160.714 107.852 160.278 108 159.942 108.296C159.614 108.584 159.45 108.972 159.45 109.46V109.856C159.45 110.344 159.614 110.736 159.942 111.032C160.278 111.328 160.714 111.476 161.25 111.476C161.778 111.476 162.206 111.328 162.534 111.032C162.87 110.736 163.038 110.344 163.038 109.856ZM160.542 117.008V113.228H161.43V114.608H166.218V113.228H167.13V117.62H161.142C160.95 117.62 160.802 117.568 160.698 117.464C160.594 117.36 160.542 117.208 160.542 117.008ZM166.218 115.388H161.43V116.84H166.218V115.388ZM177.769 106.772V117.188H176.857V106.772H177.769ZM175.405 113.192L175.525 113.948C174.221 114.204 172.641 114.332 170.785 114.332H169.477V107.612H170.389V113.552H170.749C172.613 113.552 174.165 113.432 175.405 113.192ZM189.644 111.644H187.916V117.212H187.004V106.796H187.916V110.876H189.644V111.644ZM185.744 113.348L185.864 114.08C184.64 114.328 183.112 114.452 181.28 114.452H180.008V107.624H184.796V108.392H180.92V113.696H181.268C183.028 113.696 184.52 113.58 185.744 113.348ZM191.247 113.78L190.959 110.06V107.624H192.015V110.06L191.727 113.78H191.247ZM191.487 116.144C191.231 116.144 191.043 116.08 190.923 115.952C190.811 115.824 190.755 115.656 190.755 115.448V115.292C190.755 115.084 190.811 114.916 190.923 114.788C191.043 114.66 191.231 114.596 191.487 114.596C191.743 114.596 191.927 114.66 192.039 114.788C192.159 114.916 192.219 115.084 192.219 115.292V115.448C192.219 115.656 192.159 115.824 192.039 115.952C191.927 116.08 191.743 116.144 191.487 116.144Z" fill="white"/>
</svg>
