<svg width="30" height="27" viewBox="0 0 30 27" fill="none" xmlns="http://www.w3.org/2000/svg"><path d="M26.25 2.812a.94.94 0 0 1 .938.938v18.738l-.293-.38-7.97-10.313a1.41 1.41 0 0 0-2.227 0l-4.862 6.293-1.787-2.502A1.397 1.397 0 0 0 8.905 15c-.457 0-.879.217-1.142.592l-4.688 6.562-.263.364V3.75a.94.94 0 0 1 .937-.938h22.5zM3.75 0A3.753 3.753 0 0 0 0 3.75V22.5a3.753 3.753 0 0 0 3.75 3.75h22.5A3.753 3.753 0 0 0 30 22.5V3.75A3.753 3.753 0 0 0 26.25 0H3.75zm4.688 11.25a2.81 2.81 0 1 0 0-5.623 2.81 2.81 0 0 0 0 5.623z" fill="white"/></svg>