<svg width="30" height="30" viewBox="0 0 30 30" fill="none" xmlns="http://www.w3.org/2000/svg"><path d="M15.003 7.307a7.678 7.678 0 0 0-7.69 7.69 7.678 7.678 0 0 0 7.69 7.69 7.678 7.678 0 0 0 7.69-7.69 7.678 7.678 0 0 0-7.69-7.69zm0 12.69c-2.75 0-5-2.243-5-5 0-2.758 2.243-5 5-5 2.758 0 5 2.242 5 5 0 2.757-2.25 5-5 5zm9.799-13.005a1.79 1.79 0 0 1-1.794 1.794 1.794 1.794 0 1 1 1.794-1.794zm5.093 1.82c-.114-2.402-.663-4.53-2.423-6.284C25.718.775 23.59.226 21.187.105c-2.476-.14-9.898-.14-12.374 0C6.417.22 4.288.768 2.528 2.521.768 4.276.226 6.404.105 8.807c-.14 2.476-.14 9.898 0 12.375.114 2.403.663 4.532 2.423 6.285 1.76 1.754 3.882 2.302 6.285 2.423 2.476.14 9.898.14 12.374 0 2.403-.114 4.531-.663 6.285-2.423 1.753-1.753 2.302-3.882 2.423-6.284.14-2.476.14-9.891 0-12.367zm-3.2 15.026a5.06 5.06 0 0 1-2.85 2.85c-1.975.784-6.66.603-8.842.603-2.182.001-6.873.175-8.84-.601a5.06 5.06 0 0 1-2.852-2.852c-.782-1.975-.601-6.66-.601-8.841-.001-2.182-.175-6.874.601-8.841a5.062 5.062 0 0 1 2.852-2.851c1.975-.784 6.66-.603 8.841-.603 2.182 0 6.874-.174 8.841.603a5.06 5.06 0 0 1 2.851 2.85c.784 1.975.603 6.66.603 8.842 0 2.181.18 6.873-.603 8.84z" fill="white"/></svg>