<svg width="309" height="135" viewBox="0 0 309 135" fill="none" xmlns="http://www.w3.org/2000/svg"><path d="M80.183 34.288c-2.128 0-3.784-.72-4.968-2.16-1.184-1.456-1.776-3.592-1.776-6.408-.001-2.816.59-4.976 1.775-6.48 1.184-1.52 2.84-2.28 4.968-2.28 1.408 0 2.584.32 3.528.96.96.64 1.705 1.544 2.233 2.712l-1.632.984c-.335-.864-.847-1.552-1.535-2.064-.688-.528-1.552-.792-2.592-.792-.72 0-1.368.136-1.944.408-.561.272-1.041.664-1.441 1.176-.385.496-.681 1.096-.89 1.8-.207.688-.311 1.464-.311 2.328v2.496c-.001 1.728.399 3.08 1.199 4.056.799.976 1.927 1.464 3.383 1.464 1.072 0 1.968-.272 2.688-.816.72-.56 1.249-1.296 1.585-2.208l1.608 1.008c-.528 1.184-1.288 2.12-2.28 2.808-.992.672-2.192 1.008-3.6 1.008zm14.961 0c-1.088 0-2.072-.184-2.952-.552a6.314 6.314 0 0 1-2.232-1.656c-.608-.736-1.08-1.64-1.416-2.712-.336-1.088-.504-2.336-.504-3.744s.168-2.648.504-3.72c.336-1.072.808-1.976 1.416-2.712a5.953 5.953 0 0 1 2.232-1.656c.88-.384 1.864-.576 2.952-.576 1.072 0 2.048.192 2.928.576.88.368 1.624.92 2.232 1.656.624.736 1.104 1.64 1.44 2.712.336 1.072.504 2.312.504 3.72s-.168 2.656-.504 3.744c-.336 1.072-.816 1.976-1.44 2.712a6.037 6.037 0 0 1-2.232 1.656c-.88.368-1.856.552-2.928.552zm0-1.8a5.08 5.08 0 0 0 1.992-.384A4.332 4.332 0 0 0 98.696 31a4.924 4.924 0 0 0 1.032-1.728c.24-.672.36-1.424.36-2.256v-2.784c0-.832-.12-1.584-.36-2.256a4.924 4.924 0 0 0-1.032-1.728 4.332 4.332 0 0 0-1.56-1.104 5.082 5.082 0 0 0-1.992-.384c-.72 0-1.384.128-1.992.384a4.566 4.566 0 0 0-1.584 1.104 5.126 5.126 0 0 0-1.008 1.728c-.24.672-.36 1.424-.36 2.256v2.784c0 .832.12 1.584.36 2.256.24.672.576 1.248 1.008 1.728.448.48.976.848 1.584 1.104a5.082 5.082 0 0 0 1.992.384zm23.785-12.6h-.12l-1.417 2.808-4.008 7.296-4.008-7.296-1.416-2.808h-.12V34h-1.967V17.248h2.688l4.8 9.024h.12l4.825-9.024h2.592V34h-1.968V19.888zM124.556 34v-1.68h2.352V18.928h-2.353v-1.68h6.72v1.68h-2.352V32.32h2.352V34h-6.72zm14.458-10.224L137 20.056h-.073V34h-1.968V17.248h2.327l6.12 10.224 2.016 3.72h.072V17.248h1.968V34h-2.328l-6.12-10.224zm23.76 7.776h-.072c-.208.784-.72 1.44-1.536 1.968-.8.512-1.84.768-3.12.768-1.024 0-1.968-.184-2.832-.552a6.144 6.144 0 0 1-2.184-1.656c-.607-.736-1.087-1.64-1.44-2.712-.335-1.088-.503-2.336-.503-3.744 0-1.392.168-2.624.504-3.696.337-1.088.817-1.992 1.44-2.712a6.14 6.14 0 0 1 2.257-1.68c.88-.384 1.856-.576 2.928-.576 1.504 0 2.76.336 3.768 1.008a6.703 6.703 0 0 1 2.328 2.664l-1.655 1.008c-.384-.896-.96-1.6-1.728-2.112-.752-.512-1.656-.768-2.712-.768a4.88 4.88 0 0 0-2.016.408 4.566 4.566 0 0 0-1.585 1.104A5.126 5.126 0 0 0 153.607 22c-.24.672-.36 1.424-.36 2.256v2.712c0 .832.12 1.592.36 2.28.24.672.576 1.248 1.008 1.728.448.48.992.856 1.632 1.128.64.256 1.36.384 2.16.384.576 0 1.12-.072 1.632-.216.527-.16.983-.392 1.367-.696.4-.304.712-.68.936-1.128.224-.464.336-1.008.336-1.632V27.16h-3.697v-1.776h5.664V34h-1.872v-2.448zm16.216 2.736c-1.36 0-2.52-.256-3.48-.768a7.514 7.514 0 0 1-2.447-2.16l1.488-1.248c.593.784 1.25 1.384 1.97 1.8.72.4 1.567.6 2.543.6 1.2 0 2.112-.288 2.736-.864.64-.576.96-1.344.96-2.304 0-.8-.24-1.416-.72-1.848-.48-.432-1.273-.776-2.377-1.032l-1.368-.312c-1.536-.352-2.712-.88-3.528-1.584-.8-.72-1.2-1.728-1.2-3.024 0-.736.136-1.392.408-1.968a4.006 4.006 0 0 1 1.128-1.44 5.13 5.13 0 0 1 1.752-.864 7.767 7.767 0 0 1 2.256-.312c1.265 0 2.345.232 3.24.696.913.464 1.68 1.144 2.305 2.04l-1.512 1.104a5.212 5.212 0 0 0-1.68-1.512c-.656-.368-1.472-.552-2.448-.552-1.072 0-1.92.232-2.544.696-.607.448-.91 1.128-.91 2.04 0 .8.255 1.408.767 1.824.528.4 1.32.72 2.376.96l1.368.312c1.65.368 2.84.928 3.577 1.68.736.752 1.104 1.752 1.104 3 0 .768-.135 1.464-.407 2.088a4.165 4.165 0 0 1-1.128 1.584c-.496.432-1.104.768-1.824 1.008-.703.24-1.503.36-2.4.36zm15.506 0c-1.088 0-2.072-.184-2.952-.552a6.314 6.314 0 0 1-2.232-1.656c-.608-.736-1.08-1.64-1.416-2.712-.336-1.088-.504-2.336-.504-3.744s.168-2.648.504-3.72c.336-1.072.808-1.976 1.416-2.712a5.953 5.953 0 0 1 2.232-1.656c.88-.384 1.864-.576 2.952-.576 1.072 0 2.048.192 2.928.576.88.368 1.624.92 2.232 1.656.624.736 1.104 1.64 1.44 2.712.336 1.072.504 2.312.504 3.72s-.168 2.656-.504 3.744c-.336 1.072-.816 1.976-1.44 2.712a6.042 6.042 0 0 1-2.232 1.656c-.88.368-1.856.552-2.928.552zm0-1.8c.72 0 1.384-.128 1.992-.384a4.333 4.333 0 0 0 1.56-1.104 4.924 4.924 0 0 0 1.032-1.728c.24-.672.36-1.424.36-2.256v-2.784c0-.832-.12-1.584-.36-2.256a4.924 4.924 0 0 0-1.032-1.728 4.333 4.333 0 0 0-1.56-1.104 5.082 5.082 0 0 0-1.992-.384c-.72 0-1.384.128-1.992.384a4.566 4.566 0 0 0-1.584 1.104 5.126 5.126 0 0 0-1.008 1.728c-.24.672-.36 1.424-.36 2.256v2.784c0 .832.12 1.584.36 2.256.24.672.576 1.248 1.008 1.728.448.48.976.848 1.584 1.104a5.082 5.082 0 0 0 1.992.384zm16.992 1.8c-1.088 0-2.072-.184-2.952-.552a6.314 6.314 0 0 1-2.232-1.656c-.608-.736-1.08-1.64-1.416-2.712-.336-1.088-.504-2.336-.504-3.744s.168-2.648.504-3.72c.336-1.072.808-1.976 1.416-2.712a5.953 5.953 0 0 1 2.232-1.656c.88-.384 1.864-.576 2.952-.576 1.072 0 2.048.192 2.928.576.88.368 1.624.92 2.232 1.656.624.736 1.104 1.64 1.44 2.712.336 1.072.504 2.312.504 3.72s-.168 2.656-.504 3.744c-.336 1.072-.816 1.976-1.44 2.712a6.042 6.042 0 0 1-2.232 1.656c-.88.368-1.856.552-2.928.552zm0-1.8a5.08 5.08 0 0 0 1.992-.384A4.332 4.332 0 0 0 215.04 31a4.924 4.924 0 0 0 1.032-1.728c.24-.672.36-1.424.36-2.256v-2.784c0-.832-.12-1.584-.36-2.256a4.924 4.924 0 0 0-1.032-1.728 4.332 4.332 0 0 0-1.56-1.104 5.082 5.082 0 0 0-1.992-.384c-.72 0-1.384.128-1.992.384a4.566 4.566 0 0 0-1.584 1.104 5.126 5.126 0 0 0-1.008 1.728c-.24.672-.36 1.424-.36 2.256v2.784c0 .832.12 1.584.36 2.256.24.672.576 1.248 1.008 1.728.448.48.976.848 1.584 1.104a5.082 5.082 0 0 0 1.992.384zm14.784-8.712-2.016-3.72h-.072V34h-1.968V17.248h2.328l6.12 10.224 2.016 3.72h.072V17.248h1.968V34h-2.328l-6.12-10.224z" fill="white"/><path d="M83.354 79.772v10.416h-.887v-5.436h-1.56V89.9h-.876v-9.948h.877v4.044h1.56v-4.224h.887zm-4.98 1.56H75.29v-.744h3.084v.744zm-4.343 1.344h5.424v.72h-1.428v.06c.632.344.949.996.949 1.956 0 .752-.204 1.34-.612 1.764-.4.416-.928.624-1.584.624-.65 0-1.177-.208-1.585-.624-.4-.424-.6-1.012-.6-1.764 0-.96.312-1.612.936-1.956v-.06h-1.5v-.72zm4.08 2.304c0-.48-.12-.848-.36-1.104-.24-.256-.563-.384-.971-.384-.41 0-.733.128-.973.384-.232.256-.348.624-.348 1.104v.576c-.001.472.118.84.358 1.104.248.264.568.396.96.396.393 0 .713-.132.96-.396.249-.264.372-.632.372-1.104v-.576zm16.808-2.52v.768H93.25v2.748h-.912v-6.204h.912v2.688h1.668zm-3.792 2.364c-.576.12-1.272.216-2.088.288-.808.064-1.672.096-2.592.096h-1.224v-4.872h4.752v.768h-3.84v3.36h.324c.864 0 1.692-.032 2.484-.096a18.88 18.88 0 0 0 2.064-.264l.12.72zm2.208 3.648c0 .44-.124.832-.372 1.176-.248.352-.62.628-1.116.828-.496.2-1.104.3-1.824.3-.712 0-1.32-.1-1.824-.3-.496-.2-.872-.476-1.128-.828a1.96 1.96 0 0 1-.372-1.176c0-.44.124-.832.372-1.176.256-.352.632-.628 1.128-.828.504-.2 1.112-.3 1.824-.3.72 0 1.328.1 1.824.3.496.2.868.476 1.116.828.248.344.372.736.372 1.176zm-.96-.096c0-.416-.196-.764-.588-1.044-.384-.28-.972-.42-1.764-.42-.784 0-1.372.144-1.764.432-.392.28-.588.624-.588 1.032v.204c0 .408.196.752.588 1.032.392.288.98.432 1.764.432.792 0 1.38-.144 1.764-.432.392-.28.588-.624.588-1.032v-.204zm13.98-8.604h.91v10.416h-.91V79.772zm-7.55 7.548c1.105-.568 1.95-1.088 2.533-1.56.584-.472.992-.972 1.224-1.5.24-.528.36-1.18.36-1.956v-.9h-3.815v-.78h4.728v1.668c0 .888-.136 1.64-.408 2.256-.264.616-.716 1.192-1.356 1.728-.633.528-1.54 1.108-2.725 1.74l-.54-.696zm18.632-3.732h-6.9V80.06h.9v2.784h6v.744zm1.392 1.236v.792h-9.792v-.792h9.792zm-1.344 3.912c0 .632-.304 1.14-.912 1.524-.608.384-1.488.576-2.64.576-1.152 0-2.032-.192-2.64-.576-.608-.384-.912-.892-.912-1.524 0-.4.132-.756.396-1.068.272-.312.672-.556 1.2-.732.536-.176 1.188-.264 1.956-.264s1.416.088 1.944.264c.536.176.936.42 1.2.732.272.312.408.668.408 1.068zm-.96-.072c0-.36-.216-.66-.648-.9-.424-.248-1.072-.372-1.944-.372-.864 0-1.516.124-1.956.372-.432.24-.648.54-.648.9v.168c0 .36.216.66.648.9.44.248 1.092.372 1.956.372.872 0 1.52-.124 1.944-.372.432-.24.648-.54.648-.9v-.168zm4.507-6.972c0-.584.3-1.048.9-1.392.6-.352 1.5-.528 2.7-.528s2.1.176 2.7.528c.6.344.9.808.9 1.392 0 .584-.3 1.052-.9 1.404-.6.352-1.5.528-2.7.528s-2.1-.176-2.7-.528c-.6-.352-.9-.82-.9-1.404zm6.23.06v-.132c0-.344-.22-.624-.66-.84-.433-.224-1.09-.336-1.97-.336s-1.54.112-1.98.336c-.43.216-.647.496-.647.84v.132c0 .344.216.628.648.852.44.216 1.1.324 1.98.324s1.537-.108 1.97-.324c.44-.224.66-.508.66-.852zm2.267 2.7v.768h-9.792v-.768h9.792zm-8.268 5.616V88.1h5.915v-1.128h-5.988v-.744h6.864v2.568h-5.915v1.14h6.228v.744h-6.504c-.193 0-.34-.052-.445-.156-.104-.104-.156-.256-.156-.456zm20.086-6.132h-2.136v-.72h2.136v-1.392h-2.136v-.72h2.136v-1.332h.912v5.46h-.912v-1.296zm-5.076 1.104c-.528 0-.996-.1-1.404-.3a2.365 2.365 0 0 1-.96-.876c-.232-.384-.348-.828-.348-1.332s.116-.944.348-1.32a2.26 2.26 0 0 1 .96-.876c.408-.208.876-.312 1.404-.312.52 0 .984.104 1.392.312.416.2.74.492.972.876.232.376.348.816.348 1.32 0 .504-.116.948-.348 1.332a2.348 2.348 0 0 1-.972.876c-.408.2-.872.3-1.392.3zm0-.732c.528 0 .952-.144 1.272-.432.328-.288.492-.672.492-1.152v-.384c0-.48-.164-.864-.492-1.152-.32-.288-.744-.432-1.272-.432-.528 0-.956.144-1.284.432-.32.288-.48.672-.48 1.152v.384c0 .48.16.864.48 1.152.328.288.756.432 1.284.432zm6.276 5.592v.78h-6.372c-.192 0-.34-.052-.444-.156s-.156-.256-.156-.456v-2.172h5.76V86.66h-5.832v-.768h6.756v2.772h-5.76V89.9h6.048zm10.412-10.128v6.012h-.924v-6.012h.924zm-5.736 3.408c-.056 0-.108.028-.156.084-.208.344-.48.696-.816 1.056a31.61 31.61 0 0 1-1.404 1.356l-.684-.588c.688-.608 1.216-1.128 1.584-1.56.368-.432.632-.86.792-1.284.168-.424.252-.904.252-1.44v-.648h.924v.708c0 .744-.14 1.408-.42 1.992l.06.036.192-.168a.417.417 0 0 1 .264-.108c.088 0 .172.036.252.108l2.304 2.1-.66.636-2.328-2.208a.218.218 0 0 0-.156-.072zm-.864 3.252h6.6v4.188h-6c-.192 0-.34-.052-.444-.156s-.156-.256-.156-.456v-3.576zm.912 3.42h4.764v-2.664h-4.764v2.664zm16.327-10.08v10.416h-.912V79.772h.912zm-3.708 1.368h-3.47v-.78h3.47v.78zm-5.1 1.44h6.527v.744h-1.8v.072c.36.176.636.44.828.792.192.344.288.772.288 1.284 0 .52-.112.972-.336 1.356a2.178 2.178 0 0 1-.9.864c-.384.2-.816.3-1.296.3-.48 0-.91-.1-1.295-.3a2.257 2.257 0 0 1-.912-.864c-.216-.384-.324-.836-.324-1.356 0-.512.095-.94.287-1.284.192-.352.468-.616.828-.792v-.072h-1.896v-.744zm4.955 2.508c0-.536-.152-.948-.456-1.236-.297-.288-.693-.432-1.19-.432-.495 0-.895.144-1.2.432-.295.288-.443.7-.443 1.236v.456c0 .528.152.94.456 1.236.304.296.7.444 1.188.444.49 0 .885-.148 1.19-.444.303-.296.455-.708.455-1.236v-.456zm12.91-4.152h-3.25v-.732h7.39v.732h-3.215c-.008.304-.052.58-.132.828-.08.24-.212.468-.396.684l.06.024.252-.168a.51.51 0 0 1 .312-.12c.088 0 .18.024.276.072l3.288 1.608-.504.672-3.42-1.74a.633.633 0 0 0-.3-.084.526.526 0 0 0-.276.072c-.312.28-.736.564-1.272.852-.528.28-1.204.588-2.028.924l-.48-.66c.952-.376 1.688-.716 2.208-1.02.52-.304.892-.608 1.116-.912.224-.304.348-.648.372-1.032zm5.34 4.476v.792h-4.38v2.124h-.91v-2.124h-4.5v-.792h9.79zm-7.51 4.284h6.227v.756h-6.528c-.192 0-.34-.052-.444-.156s-.156-.256-.156-.456v-2.472h.9v2.328zm16.434-9.924h.91v10.416h-.91V79.772zm-7.405.744h.9v2.628h3.156v-2.64h.89v6.876h-4.945v-6.864zm4.056 6.096v-2.7h-3.155v2.7h3.156zm10.496-5.772h-3.264v-.732h7.392v.732h-3.228c-.016.56-.188 1.032-.516 1.416l.06.024.252-.18a.586.586 0 0 1 .312-.108c.08 0 .176.024.288.072l3.276 1.524-.48.66-3.432-1.656a.653.653 0 0 0-.312-.084.547.547 0 0 0-.3.084c-.312.264-.732.532-1.26.804-.528.264-1.204.556-2.028.876l-.468-.648c.952-.36 1.688-.68 2.208-.96.52-.288.892-.572 1.116-.852.232-.28.36-.604.384-.972zm.888 4.968v.96c1.008.056 1.776.264 2.304.624.528.36.792.824.792 1.392 0 .4-.136.752-.408 1.056-.264.312-.664.556-1.2.732-.528.176-1.176.264-1.944.264s-1.42-.088-1.956-.264c-.528-.176-.928-.42-1.2-.732a1.562 1.562 0 0 1-.396-1.056c0-.568.264-1.032.792-1.392s1.296-.568 2.304-.624v-.96h-4.44v-.768h9.792v.768h-4.44zm-.456 1.656c-.872 0-1.528.12-1.968.36-.432.24-.648.536-.648.888v.168c0 .344.216.636.648.876.44.24 1.096.36 1.968.36.872 0 1.524-.12 1.956-.36.432-.24.648-.532.648-.876v-.168c0-.36-.216-.656-.648-.888-.424-.24-1.076-.36-1.956-.36zm14.792-7.692v5.796h-.924v-5.796h.924zm-8.64 2.892c0-.52.116-.972.348-1.356.24-.392.568-.692.984-.9a3.2 3.2 0 0 1 1.428-.312c.528 0 1 .104 1.416.312.424.208.752.508.984.9.24.384.36.836.36 1.356 0 .52-.12.976-.36 1.368-.232.384-.56.68-.984.888a3.123 3.123 0 0 1-1.416.312 3.2 3.2 0 0 1-1.428-.312 2.402 2.402 0 0 1-.984-.888c-.232-.392-.348-.848-.348-1.368zm4.548.192v-.396c0-.488-.164-.876-.492-1.164-.328-.296-.76-.444-1.296-.444s-.972.148-1.308.444c-.328.288-.492.676-.492 1.164v.396c0 .488.164.88.492 1.176.336.296.772.444 1.308.444.528 0 .956-.148 1.284-.444.336-.296.504-.688.504-1.176zm-2.496 7.152v-3.78h.888v1.38h4.788v-1.38h.912v4.392h-5.988c-.192 0-.34-.052-.444-.156s-.156-.256-.156-.456zm5.676-1.62h-4.788v1.452h4.788v-1.452zm11.55-8.616v10.416h-.91V79.772h.91zm-2.363 6.42.12.756c-1.304.256-2.884.384-4.74.384h-1.308v-6.72h.912v5.94h.36c1.863 0 3.415-.12 4.655-.36zm14.24-1.548h-1.73v5.568h-.91V79.796h.91v4.08h1.73v.768zm-3.9 1.704.12.732c-1.225.248-2.753.372-4.585.372h-1.272v-6.828h4.788v.768h-3.876v5.304h.348c1.76 0 3.252-.116 4.476-.348zm5.502.432-.288-3.72v-2.436h1.055v2.436l-.288 3.72h-.48zm.24 2.364c-.256 0-.444-.064-.564-.192a.738.738 0 0 1-.168-.504v-.156c0-.208.056-.376.168-.504.12-.128.308-.192.564-.192s.44.064.552.192c.12.128.18.296.18.504v.156c0 .208-.06.376-.18.504-.113.128-.297.192-.553.192zM57.157 99.248h-3.35v-.768h7.597v.768H58.08c0 .392-.044.744-.132 1.056a2.723 2.723 0 0 1-.444.888l.036.012.228-.168a.482.482 0 0 1 .336-.132c.08 0 .168.024.264.072l3.516 1.98-.504.708-3.612-2.112a.773.773 0 0 0-.336-.096.4.4 0 0 0-.216.06c-.312.336-.74.68-1.284 1.032-.544.352-1.252.736-2.124 1.152l-.492-.672c1-.472 1.772-.9 2.316-1.284.552-.392.94-.78 1.164-1.164.232-.392.352-.836.36-1.332zm5.34 6.984V107h-9.793v-.768h4.44v-2.592h.912v2.592h4.44zm10.698-3.936v.792h-9.792v-.792H70.4c.263-1.048.4-2.168.407-3.36v-.024H64.76v-.768h6.935v.684c0 1.144-.132 2.3-.396 3.468h1.895zm-8.34 2.28h6.888v4.02h-6.288c-.192 0-.34-.052-.444-.156-.103-.104-.155-.256-.155-.456v-3.408zm.9 3.264h5.088v-2.52h-5.088v2.52zm18.464-6.912v.768h-1.67v3.984h-.912v-7.908h.912v3.156h1.668zm-4.801 2.616h-4.957v-5.1h4.956v5.1zm-.913-4.344h-3.133v3.588h3.132V99.2zm-1.585 8.46h5.868v.756h-6.18c-.191 0-.34-.052-.444-.156s-.156-.256-.156-.456v-2.988h.912v2.844zm18.732-9.888h.912v10.416h-.912V97.772zm-7.548 7.548c1.104-.568 1.948-1.088 2.532-1.56.584-.472.992-.972 1.224-1.5.24-.528.36-1.18.36-1.956v-.9h-3.816v-.78h4.728v1.668c0 .888-.136 1.64-.408 2.256-.264.616-.716 1.192-1.356 1.728-.632.528-1.54 1.108-2.724 1.74l-.54-.696zm20.335-2.676h-1.727v5.568h-.912V97.796h.913v4.08h1.728v.768zm-3.9 1.704.12.732c-1.223.248-2.75.372-4.583.372h-1.272v-6.828h4.788v.768h-3.876v5.304h.348c1.76 0 3.252-.116 4.476-.348zm13.448-6.576v10.416h-.9v-4.668h-2.196v-.744h2.196v-1.824h-2.196v-.756h2.196v-2.424h.9zm-2.82 6.9.12.732c-1.216.24-2.68.36-4.392.36h-1.224v-4.092h3.588V99.32h-3.624v-.768h4.524v3.864h-3.588v2.592h.372c1.632 0 3.04-.112 4.224-.336zm9.02-5.712h-3.325v-.768h7.536v.768h-3.29a3.035 3.035 0 0 1-.143.888c-.08.264-.216.516-.408.756l.047.024.24-.18a.576.576 0 0 1 .336-.12c.104 0 .192.02.264.06l3.396 1.776-.504.684-3.53-1.896a.653.653 0 0 0-.31-.084.476.476 0 0 0-.217.048c-.312.304-.736.612-1.272.924-.535.312-1.235.66-2.1 1.044l-.49-.684c.96-.408 1.707-.78 2.243-1.116.536-.336.916-.668 1.14-.996a2.12 2.12 0 0 0 .384-1.128zm5.34 5.748h-4.44v3.9h-.913v-3.9h-4.44v-.768h9.792v.768zm9.835-6.936v10.416h-.912V97.772h.913zm-5.1 4.2c.112 0 .2.044.264.132l2.376 3-.696.612-2.376-3.096a.16.16 0 0 0-.13-.06.118.118 0 0 0-.11.06 8.543 8.543 0 0 1-.863 1.452 29.196 29.196 0 0 1-1.44 1.8l-.696-.588c.705-.792 1.245-1.468 1.62-2.028a6.37 6.37 0 0 0 .817-1.704c.168-.568.252-1.22.252-1.956v-1.128h.91v1.116c0 .952-.14 1.816-.42 2.592l.06.036.17-.144a.447.447 0 0 1 .263-.096zm14.947.588h-2.208v-.744h2.208v-1.632h-2.208v-.744h2.208v-1.668h.912v7.908h-.912v-3.12zm-2.616.996h-4.908v-5.112h4.908v5.112zm-.9-4.356h-3.108v3.6h3.108v-3.6zm4.644 8.46v.756h-6.288c-.192 0-.34-.052-.444-.156s-.156-.256-.156-.456v-2.988h.924v2.844h5.964zm12.407-7.308v-2.58h.912v6.264h-.912v-2.94h-2.184v-.744h2.185zm-7.128 3.324-.684-.576c.672-.528 1.192-.984 1.56-1.368.368-.392.632-.776.792-1.152a3.17 3.17 0 0 0 .252-1.284v-.12h-2.292v-.768h5.472v.768h-2.268v.156c0 .68-.14 1.276-.42 1.788l.07.036.193-.144a.447.447 0 0 1 .264-.096.4.4 0 0 1 .276.108l2.232 1.872-.672.6-2.268-1.968a.306.306 0 0 0-.18-.072.23.23 0 0 0-.168.072 6.657 6.657 0 0 1-.828.96c-.337.328-.78.724-1.333 1.188zm8.1 2.844c0 .432-.128.816-.384 1.152-.248.344-.628.612-1.14.804-.504.2-1.12.3-1.848.3-.736 0-1.36-.1-1.872-.3-.504-.192-.884-.46-1.14-.804a1.89 1.89 0 0 1-.372-1.152c0-.432.125-.816.373-1.152.256-.344.636-.612 1.14-.804.512-.2 1.136-.3 1.872-.3.728 0 1.344.1 1.848.3.512.192.892.46 1.14.804.256.336.384.72.384 1.152zm-.96-.096c0-.408-.2-.748-.6-1.02-.4-.28-1.004-.42-1.812-.42-.816 0-1.428.14-1.836.42-.4.272-.6.612-.6 1.02v.204c0 .4.2.736.6 1.008.407.28 1.02.42 1.835.42.808 0 1.412-.14 1.812-.42.4-.272.6-.608.6-1.008v-.204zm12.727-6.264v.768h-1.668v2.304h-.912v-5.46h.912v2.388h1.668zm-4.836 2.616h-4.92v-4.572h4.92v4.572zm-.9-3.828h-3.12v3.084h3.12v-3.084zm-1.596 8.952h5.952v.78h-6.276c-.192 0-.34-.052-.444-.156s-.156-.256-.156-.456v-2.172h5.676v-1.236h-5.748v-.768h6.66v2.772h-5.664v1.236zm20.867-6.72h-1.67v2.604h-.91v-6.012h.91v2.64h1.67v.768zm-9.42 2.568-.48-.696c1.08-.416 1.9-.788 2.46-1.116.567-.336.963-.684 1.187-1.044.232-.368.348-.812.348-1.332v-.456h-3.696v-.768h4.62v1.128c0 .696-.133 1.276-.397 1.74-.256.456-.696.88-1.32 1.272-.624.384-1.532.808-2.724 1.272zm1.26.684h6.49v4.188h-5.89c-.193 0-.34-.052-.445-.156-.104-.104-.156-.256-.156-.456v-3.576zm.91 3.42h4.67v-2.664h-4.67v2.664zm17.936-5.208h-1.728v5.568h-.912V97.796h.912v4.08h1.728v.768zm-6.564-.672a.33.33 0 0 1 .264.132l2.34 3-.696.612-2.352-3.084a.124.124 0 0 0-.12-.072c-.04 0-.08.024-.12.072a8.56 8.56 0 0 1-.84 1.44 31.594 31.594 0 0 1-1.428 1.8l-.696-.588c.696-.792 1.228-1.468 1.596-2.028a6.086 6.086 0 0 0 .804-1.704c.168-.568.252-1.22.252-1.956v-1.128h.924v1.116c0 .952-.14 1.816-.42 2.592l.06.036.18-.144a.433.433 0 0 1 .252-.096zm17.264.864h-1.692v5.376h-.912V97.796h.912v4.272h1.692v.768zm-5.16-3.696h-3.408v-.78h3.408v.78zm-5.004 1.44h6.42v.744h-1.776v.072c.728.36 1.092 1.052 1.092 2.076 0 .52-.108.972-.324 1.356a2.178 2.178 0 0 1-.9.864c-.376.2-.796.3-1.26.3s-.888-.1-1.272-.3a2.197 2.197 0 0 1-.888-.864c-.216-.384-.324-.836-.324-1.356 0-1.024.364-1.716 1.092-2.076v-.072h-1.86v-.744zm4.848 2.496c0-.536-.144-.944-.432-1.224-.288-.288-.676-.432-1.164-.432-.48 0-.868.144-1.164.432-.288.288-.432.696-.432 1.224v.492c0 .52.148.928.444 1.224.296.288.68.432 1.152.432.472 0 .856-.144 1.152-.432.296-.296.444-.704.444-1.224v-.492zm15.163.864h-.888v-6.168h.888v6.168zm-8.472-.096-.527-.624c.896-.424 1.576-.804 2.04-1.14.472-.336.804-.684.996-1.044.19-.36.287-.796.287-1.308v-.48h-3.036v-.744h3.913v1.128c0 .328-.02.592-.06.792h1.512V97.94h.876v5.868h-.875v-2.628h-1.716c-.21.48-.573.92-1.093 1.32-.52.4-1.292.848-2.316 1.344zm9.277 4.176-.588.624-1.777-1.692c-.056-.056-.112-.084-.168-.084a.215.215 0 0 0-.108.036c-.184.264-.424.54-.72.828-.288.296-.664.64-1.128 1.032l-1.837-1.848a.252.252 0 0 0-.18-.084.215.215 0 0 0-.108.036 5.81 5.81 0 0 1-.708.84c-.28.296-.648.636-1.104 1.02l-.576-.612c.536-.432.956-.82 1.26-1.164.304-.344.52-.684.648-1.02.136-.344.204-.724.204-1.14v-.384h.863v.42c0 .632-.12 1.188-.36 1.668l.048.024.145-.108a.42.42 0 0 1 .24-.096c.096 0 .18.036.252.108l1.26 1.236c.576-.512.972-.968 1.188-1.368.216-.4.324-.896.324-1.488v-.396h.863v.432c0 .344-.028.652-.084.924a2.84 2.84 0 0 1-.277.768l.048.036.157-.132a.447.447 0 0 1 .264-.096c.09 0 .165.028.23.084l1.727 1.596zm1.747-6.048-.492-.672c1.04-.392 1.84-.748 2.4-1.068.56-.328.948-.652 1.164-.972.224-.32.336-.692.336-1.116v-.276h.912v.324c0 .344-.048.656-.144.936a2.38 2.38 0 0 1-.456.768l.084.024.3-.204a.557.557 0 0 1 .348-.132c.08 0 .168.02.264.06l3.36 1.62-.504.684-3.504-1.74a.79.79 0 0 0-.348-.096.653.653 0 0 0-.312.084c-.32.28-.752.56-1.296.84-.536.272-1.24.584-2.112.936zm8.688.864v.768H221.7v-.768h9.792zm-2.34 1.608h.888v4.152h-6.288c-.192 0-.34-.052-.444-.156s-.156-.256-.156-.456v-3.54h.888v1.296h5.112v-1.296zm0 2.052h-5.112v1.344h5.112v-1.344zm12.175-8.724v10.416h-.912V97.772h.912zm-2.364 6.42.12.756c-1.304.256-2.884.384-4.74.384h-1.308v-6.72h.912v5.94h.36c1.864 0 3.416-.12 4.656-.36zm14.24-1.548h-1.728v5.568h-.912V97.796h.912v4.08h1.728v.768zm-3.9 1.704.12.732c-1.224.248-2.752.372-4.584.372h-1.273v-6.828h4.788v.768h-3.876v5.304h.347c1.76 0 3.252-.116 4.476-.348zm5.503.432-.288-3.72v-2.436h1.056v2.436l-.288 3.72h-.48zm.24 2.364c-.256 0-.444-.064-.564-.192a.738.738 0 0 1-.168-.504v-.156c0-.208.056-.376.168-.504.12-.128.308-.192.564-.192s.44.064.552.192c.12.128.18.296.18.504v.156c0 .208-.06.376-.18.504-.112.128-.296.192-.552.192z" fill="white"/></svg>