<svg xmlns="http://www.w3.org/2000/svg" width="current" height="current" fill="currentColor"><path fill="current" d="M.285 1.934c4.375.156 7.774.234 10.195.234 2.422 0 5.82-.078 10.196-.234.078.312.117.527.117.644 0 .137-.04.381-.117.733-.899.078-1.631.166-2.197.263-.547.078-1.231.215-2.051.41-.801.196-1.416.479-1.846.85-.43.352-.654.781-.674 1.29a487.4 487.4 0 0 0-.38 18.544c0 2.95.107 9.13.322 18.545h9.052c2.871-.195 5.44-.615 7.705-1.26 2.266-.644 4.15-1.465 5.655-2.46 1.523-1.016 2.773-2.061 3.75-3.136a18.145 18.145 0 0 0 2.578-3.662c.508.196.84.46.996.791a107.84 107.84 0 0 0-1.875 3.604c-.43.918-.908 2.129-1.436 3.633-.507 1.484-.84 2.91-.996 4.277H13.85c-5.292 0-9.833.059-13.622.176a1.928 1.928 0 0 1-.118-.586c0-.137.04-.4.118-.791a41.36 41.36 0 0 0 2.168-.234c.566-.098 1.25-.245 2.05-.44.82-.195 1.446-.469 1.875-.82.43-.371.655-.81.674-1.319.235-6.113.352-12.275.352-18.486 0-6.328-.098-11.787-.293-16.377-.02-.508-.244-.937-.674-1.289-.43-.371-1.055-.654-1.875-.85-.8-.195-1.484-.332-2.05-.41a25.356 25.356 0 0 0-2.169-.263c-.078-.352-.117-.596-.117-.733 0-.195.039-.41.117-.644Zm60.733 16.435c1.933 0 3.671.342 5.214 1.026 1.563.683 2.891 1.63 3.985 2.841 1.094 1.211 1.933 2.666 2.52 4.366.585 1.68.878 3.515.878 5.507 0 4.063-1.142 7.364-3.427 9.903-2.266 2.558-5.323 3.838-9.17 3.838-1.915 0-3.653-.332-5.215-.997a11.58 11.58 0 0 1-3.955-2.841c-1.094-1.23-1.944-2.686-2.55-4.365-.585-1.68-.878-3.526-.878-5.538 0-1.992.293-3.828.879-5.507.586-1.7 1.416-3.155 2.49-4.366 1.094-1.21 2.422-2.158 3.984-2.841 1.563-.684 3.311-1.026 5.245-1.026Zm0 1.904c-1.993 0-3.584.967-4.776 2.9-1.172 1.934-1.758 4.913-1.758 8.936 0 4.024.586 7.002 1.758 8.936 1.192 1.914 2.783 2.871 4.776 2.871 1.992 0 3.574-.967 4.746-2.9 1.191-1.934 1.787-4.903 1.787-8.907 0-2.011-.157-3.76-.469-5.244-.313-1.484-.752-2.715-1.318-3.691-.567-.977-1.25-1.7-2.051-2.168-.8-.488-1.7-.733-2.695-.733ZM93.42 18.37c1.933 0 3.672.342 5.215 1.026 1.562.683 2.89 1.63 3.984 2.841 1.094 1.211 1.934 2.666 2.52 4.366.586 1.68.879 3.515.879 5.507 0 4.063-1.143 7.364-3.428 9.903-2.266 2.558-5.322 3.838-9.17 3.838-1.914 0-3.652-.332-5.215-.997a11.58 11.58 0 0 1-3.955-2.841c-1.094-1.23-1.943-2.686-2.549-4.365-.586-1.68-.879-3.526-.879-5.538 0-1.992.293-3.828.88-5.507.585-1.7 1.415-3.155 2.49-4.366 1.093-1.21 2.421-2.158 3.984-2.841 1.562-.684 3.31-1.026 5.244-1.026Zm0 1.904c-1.992 0-3.584.967-4.776 2.9-1.171 1.934-1.757 4.913-1.757 8.936 0 4.024.586 7.002 1.757 8.936 1.192 1.914 2.784 2.871 4.776 2.871s3.574-.967 4.746-2.9c1.191-1.934 1.787-4.903 1.787-8.907 0-2.011-.156-3.76-.469-5.244-.312-1.484-.752-2.715-1.318-3.691-.566-.977-1.25-1.7-2.05-2.168-.802-.488-1.7-.733-2.696-.733ZM130.012 43.8c1.718-.176 2.578-.635 2.578-1.377 0-.43-.215-.908-.645-1.436l-7.998-10.254h-1.435c0 4.668.058 8.086.176 10.254 0 .508.126.948.38 1.319.274.351.664.625 1.172.82.528.195.957.342 1.289.44.352.078.811.156 1.377.234.117.234.176.478.176.732s-.059.469-.176.645a161.63 161.63 0 0 0-7.324-.176c-2.383 0-4.863.059-7.441.176-.079-.313-.118-.528-.118-.645 0-.097.039-.341.118-.732a21.354 21.354 0 0 0 1.552-.234 20.89 20.89 0 0 0 1.524-.44c.625-.195 1.094-.469 1.406-.82.313-.371.479-.81.498-1.319.078-1.933.108-8.027.088-18.28-.02-10.274-.029-16.026-.029-17.257-1.114-.644-2.989-1.045-5.625-1.2a1.965 1.965 0 0 1-.147-.704c0-.195.049-.42.147-.674 3.711-.351 7.002-1.152 9.873-2.402.527.215.869.478 1.025.79l.059 27.598h1.523l5.918-5.625c.371-.43.557-.869.557-1.318 0-.82-.928-1.328-2.783-1.523-.079-.313-.118-.528-.118-.645 0-.176.039-.42.118-.732 2.539.117 4.56.175 6.064.175 1.641 0 3.721-.058 6.24-.175.078.234.117.44.117.615 0 .117-.039.371-.117.762-1.738.195-3.174.488-4.306.879-1.133.37-2.159 1.025-3.077 1.962l-4.658 4.717 10.313 13.037c1.172 1.524 2.929 2.461 5.273 2.813.078.39.117.654.117.79 0 .157-.039.352-.117.587A148.174 148.174 0 0 0 136.75 45c-1.973 0-4.219.059-6.738.176-.078-.313-.117-.547-.117-.703 0-.137.039-.362.117-.674ZM168.479.967c1.542 0 3.076.107 4.599.322 1.543.195 3.018.44 4.424.732 1.426.274 2.773.547 4.043.82 1.269.274 2.412.47 3.428.587-.235.703-.352 1.943-.352 3.72 0 3.457.518 6.456 1.553 8.995-.117.351-.479.566-1.084.644l-1.26-2.695a29.121 29.121 0 0 0-2.256-3.985 16.53 16.53 0 0 0-3.164-3.544c-1.23-1.055-2.666-1.905-4.306-2.55-1.622-.644-3.497-.966-5.625-.966-1.836 0-3.467.303-4.893.908a12.243 12.243 0 0 0-3.75 2.461 14.222 14.222 0 0 0-2.725 3.574 22.823 22.823 0 0 0-1.816 4.307 31.272 31.272 0 0 0-.996 4.687 38.549 38.549 0 0 0-.293 4.659c0 2.5.322 4.892.967 7.177.664 2.285 1.689 4.307 3.076 6.065 1.387 1.738 3.144 3.125 5.273 4.16 2.149 1.035 4.707 1.553 7.676 1.553 5.684 0 9.981-1.778 12.891-5.332.312 0 .566.087.761.263.215.176.323.39.323.645a15.018 15.018 0 0 1-3.428 3.603 20.806 20.806 0 0 1-4.248 2.52 23.348 23.348 0 0 1-4.57 1.435c-1.524.313-2.94.47-4.248.47-1.426 0-2.969-.157-4.629-.47a23.112 23.112 0 0 1-4.952-1.494 23.421 23.421 0 0 1-4.746-2.754c-1.504-1.152-2.841-2.558-4.013-4.218-1.172-1.68-2.11-3.643-2.813-5.889-.703-2.246-1.055-4.824-1.055-7.734 0-2.93.352-5.518 1.055-7.764.703-2.266 1.641-4.238 2.813-5.918 1.191-1.68 2.549-3.086 4.072-4.219a23.376 23.376 0 0 1 4.775-2.783 21.643 21.643 0 0 1 4.922-1.523c1.641-.313 3.164-.47 4.571-.47Zm21.298 1.904c3.711-.351 7.002-1.152 9.873-2.402.528.215.87.478 1.026.79 0 22.13.078 35.372.234 39.727.02.41.137.782.352 1.114.234.312.488.566.761.761.274.176.645.342 1.114.498.468.137.83.235 1.084.293.273.04.634.088 1.084.147.117.234.175.478.175.732s-.058.469-.175.645a165.251 165.251 0 0 0-7.5-.176c-2.383 0-4.864.059-7.442.176-.078-.313-.117-.528-.117-.645 0-.097.039-.341.117-.732a21.395 21.395 0 0 0 1.553-.234c.41-.098.918-.245 1.523-.44.625-.195 1.094-.469 1.407-.82a2.12 2.12 0 0 0 .498-1.319c.078-1.933.117-6.26.117-12.978 0-3.106-.01-7.334-.029-12.686-.02-5.351-.03-8.642-.03-9.873-1.113-.644-2.988-1.045-5.625-1.2a1.984 1.984 0 0 1-.146-.704c0-.195.049-.42.146-.674Zm33.721 15.498c1.934 0 3.672.342 5.215 1.026 1.562.683 2.891 1.63 3.984 2.841 1.094 1.211 1.934 2.666 2.52 4.366.586 1.68.879 3.515.879 5.507 0 4.063-1.143 7.364-3.428 9.903-2.266 2.558-5.322 3.838-9.17 3.838-1.914 0-3.652-.332-5.215-.997a11.581 11.581 0 0 1-3.955-2.841c-1.094-1.23-1.943-2.686-2.549-4.365-.586-1.68-.879-3.526-.879-5.538 0-1.992.293-3.828.879-5.507.586-1.7 1.416-3.155 2.491-4.366 1.093-1.21 2.421-2.158 3.984-2.841 1.562-.684 3.31-1.026 5.244-1.026Zm0 1.904c-1.992 0-3.584.967-4.775 2.9-1.172 1.934-1.758 4.913-1.758 8.936 0 4.024.586 7.002 1.758 8.936 1.191 1.914 2.783 2.871 4.775 2.871 1.992 0 3.574-.967 4.746-2.9 1.192-1.934 1.787-4.903 1.787-8.907 0-2.011-.156-3.76-.469-5.244-.312-1.484-.751-2.715-1.318-3.691-.566-.977-1.25-1.7-2.051-2.168-.8-.488-1.699-.733-2.695-.733Zm17.93-1.26 2.109.118c.703.039 1.26.068 1.67.088a20.88 20.88 0 0 0 2.168 0 377.109 377.109 0 0 0 3.545-.205c.351.117.635.42.85.908-.02.156-.059.39-.118.703-.039.293-.078.654-.117 1.084-.019.41-.029.918-.029 1.523l-.059 13.916c0 3.516 1.065 5.274 3.194 5.274 1.972 0 4.775-1.299 8.408-3.897 0-5.82-.088-10.918-.264-15.293 0-.351-.068-.664-.205-.937a1.835 1.835 0 0 0-.644-.703 5.842 5.842 0 0 0-.762-.469c-.215-.137-.537-.254-.967-.352-.43-.117-.732-.185-.908-.205a34.08 34.08 0 0 0-.879-.175c-.078-.313-.117-.547-.117-.703 0-.137.039-.362.117-.674l2.08.117c.723.039 1.289.068 1.699.088a20.847 20.847 0 0 0 2.168 0 377.109 377.109 0 0 0 3.545-.205c.098.058.176.117.234.175a.38.38 0 0 1 .176.176.604.604 0 0 1 .117.147c.02.02.049.088.088.205.039.098.069.166.088.205a22.616 22.616 0 0 0-.234 3.31c-.117 2.872-.176 5.206-.176 7.002 0 .938.02 2.51.059 4.717.039 2.207.058 4.14.058 5.801 1.114.645 2.989 1.045 5.625 1.201.098.488.147.742.147.762 0 .117-.049.322-.147.615-3.691.352-6.992 1.152-9.902 2.402-.508-.214-.84-.478-.996-.79v-4.57c-1.953 1.679-3.799 3.017-5.537 4.013-1.719.976-3.457 1.465-5.215 1.465-2.227 0-3.809-.625-4.746-1.875-.918-1.25-1.397-3.213-1.436-5.89l-.234-14.853c-.039-.449-.127-.78-.264-.996-.117-.234-.322-.449-.615-.644a5.712 5.712 0 0 0-.762-.469c-.234-.137-.566-.254-.996-.352-.43-.117-.732-.185-.908-.205a28.12 28.12 0 0 0-.908-.175c-.078-.313-.117-.547-.117-.703 0-.137.039-.362.117-.674Zm51.943-16.142c3.691-.351 6.992-1.152 9.902-2.402.508.215.84.478.997.79 0 22.13.087 35.372.263 39.727.02.508.166.948.44 1.319.293.351.703.625 1.23.82.527.195.967.342 1.318.44.352.078.811.156 1.377.234a3.2 3.2 0 0 1 .118.732c0 .117-.039.332-.118.645a669.95 669.95 0 0 0-3.779-.205 19.247 19.247 0 0 0-2.139 0c-.371.02-.878.048-1.523.088l-1.904.117a1.14 1.14 0 0 1-.264-.147 1.475 1.475 0 0 0-.146-.088 1.539 1.539 0 0 0-.088-.146.7.7 0 0 0-.088-.147.656.656 0 0 1-.088-.175c-.02-.117-.039-.186-.059-.205.078-.47.118-1.524.118-3.165-3.223 3.165-6.202 4.747-8.936 4.747-3.008 0-5.459-1.133-7.354-3.399-1.894-2.266-2.841-5.351-2.841-9.258 0-1.347.156-2.695.468-4.043.313-1.347.83-2.675 1.553-3.984a14.085 14.085 0 0 1 2.666-3.457c1.055-.996 2.393-1.797 4.014-2.402 1.621-.625 3.418-.938 5.39-.938 1.465 0 3.184.313 5.157.938-.039-3.711-.059-8.33-.059-13.858-1.113-.644-2.988-1.045-5.625-1.2-.078-.313-.117-.548-.117-.704 0-.137.039-.361.117-.674Zm-.557 39.14c1.954 0 4.014-1.044 6.182-3.134.039-1.914.059-5.537.059-10.87V23.76c-1.348-2.325-3.409-3.487-6.182-3.487a6.09 6.09 0 0 0-1.758.264c-.586.176-1.211.527-1.875 1.055-.664.527-1.25 1.201-1.758 2.021-.488.82-.898 1.963-1.23 3.428-.332 1.445-.498 3.115-.498 5.01 0 2.89.596 5.273 1.787 7.148 1.211 1.875 2.969 2.813 5.273 2.813Z"/></svg>