<svg width="22" height="25" viewBox="0 0 22 25" fill="currentColor" xmlns="http://www.w3.org/2000/svg"><path d="M4.688 0A4.69 4.69 0 0 0 0 4.688v15.625A4.69 4.69 0 0 0 4.688 25H20.312a1.56 1.56 0 0 0 1.563-1.562 1.56 1.56 0 0 0-1.562-1.563V18.75a1.56 1.56 0 0 0 1.562-1.562V1.562A1.56 1.56 0 0 0 20.313 0H4.688zm0 18.75h12.5v3.125h-12.5a1.56 1.56 0 0 1-1.563-1.562 1.56 1.56 0 0 1 1.562-1.563zM6.25 7.03c0-.428.352-.78.781-.78h9.376c.43 0 .781.352.781.781 0 .43-.351.782-.78.782H7.03a.784.784 0 0 1-.78-.78zm.781 2.345h9.376c.43 0 .781.352.781.781 0 .43-.351.781-.78.781H7.03a.784.784 0 0 1-.78-.78c0-.43.352-.782.781-.782z" fill="current"/></svg>