<svg width="current" height="current" viewBox="0 0 40 40" fill="none" xmlns="http://www.w3.org/2000/svg"><circle cx="20" cy="20" r="20" fill="#D9D9D9"/><path fill-rule="evenodd" clip-rule="evenodd" d="M29.253 37.736A19.913 19.913 0 0 1 20 40c-3.338 0-6.486-.818-9.252-2.264C11.35 36.756 15.264 36 20 36s8.649.756 9.253 1.736z" fill="black"/><path fill-rule="evenodd" clip-rule="evenodd" d="M8.916 36.65a1.48 1.48 0 0 1-.027-.282 8.843 8.843 0 0 1 8.843-8.844h4.534a8.843 8.843 0 0 1 8.844 8.844c.001.097-.008.19-.026.282-.653.436-1.333.834-2.036 1.191H10.952a20.003 20.003 0 0 1-2.036-1.19zM24.49 23.283a6.35 6.35 0 1 1-8.98-8.98 6.35 6.35 0 0 1 8.98 8.98z" fill="black"/></svg>