<svg width="90" height="90" viewBox="0 0 90 90" fill="none" xmlns="http://www.w3.org/2000/svg">
<circle cx="45" cy="45" r="45" fill="#D9D9D9"/>
<path fill-rule="evenodd" clip-rule="evenodd" d="M65.8182 84.9053C59.5928 88.1597 52.5113 90 45 90C37.4886 90 30.4071 88.1597 24.1818 84.9053C25.5399 82.7011 34.3429 81 45 81C55.6571 81 64.4601 82.7011 65.8182 84.9053Z" fill="black"/>
<path fill-rule="evenodd" clip-rule="evenodd" d="M20.0607 82.4628C20.0209 82.2574 20 82.0452 20 81.8281C20 70.8348 28.9062 61.9286 39.8996 61.9286H50.1004C61.0938 61.9286 70 70.8348 70 81.8281C70 82.0452 69.9791 82.2574 69.9393 82.4628C68.4705 83.4425 66.9409 84.3382 65.3573 85.1429H24.6427C23.0591 84.3382 21.5295 83.4425 20.0607 82.4628ZM55.1015 52.3872C52.4224 55.0663 48.7888 56.5714 45 56.5714C41.2112 56.5714 37.5776 55.0663 34.8985 52.3872C32.2194 49.7081 30.7143 46.0745 30.7143 42.2857C30.7143 38.4969 32.2194 34.8633 34.8985 32.1842C37.5776 29.5051 41.2112 28 45 28C48.7888 28 52.4224 29.5051 55.1015 32.1842C57.7806 34.8633 59.2857 38.4969 59.2857 42.2857C59.2857 46.0745 57.7806 49.7081 55.1015 52.3872Z" fill="black"/>
</svg>
