<svg width="50" height="55" viewBox="0 0 50 55" fill="none" xmlns="http://www.w3.org/2000/svg">
<path d="M27.9416 1.22023C26.3146 -0.406742 23.6724 -0.406742 22.0454 1.22023L1.22023 22.0454C-0.406742 23.6724 -0.406742 26.3146 1.22023 27.9416C2.84719 29.5685 5.48939 29.5685 7.11636 27.9416L25 10.0579L42.8836 27.9285C44.5106 29.5555 47.1528 29.5555 48.7798 27.9285C50.4067 26.3016 50.4067 23.6594 48.7798 22.0324L27.9546 1.20721L27.9416 1.22023ZM48.7668 47.0357L27.9416 26.2105C26.3146 24.5835 23.6724 24.5835 22.0454 26.2105L1.22023 47.0357C-0.406742 48.6626 -0.406742 51.3048 1.22023 52.9318C2.84719 54.5588 5.48939 54.5588 7.11636 52.9318L25 35.0482L42.8836 52.9188C44.5106 54.5457 47.1528 54.5457 48.7798 52.9188C50.4067 51.2918 50.4067 48.6496 48.7798 47.0226L48.7668 47.0357Z" fill="#D5D5D5"/>
</svg>
