<svg width="50" height="55" viewBox="0 0 50 55" fill="none" xmlns="http://www.w3.org/2000/svg">
<path d="M27.9416 52.9318C26.3146 54.5588 23.6724 54.5588 22.0454 52.9318L1.22023 32.1066C-0.406742 30.4796 -0.406742 27.8374 1.22023 26.2105C2.84719 24.5835 5.48939 24.5835 7.11636 26.2105L25 44.0941L42.8836 26.2235C44.5106 24.5965 47.1528 24.5965 48.7798 26.2235C50.4067 27.8504 50.4067 30.4926 48.7798 32.1196L27.9546 52.9448L27.9416 52.9318ZM48.7668 7.11636L27.9416 27.9416C26.3146 29.5685 23.6724 29.5685 22.0454 27.9416L1.22023 7.11636C-0.406742 5.48939 -0.406742 2.84719 1.22023 1.22023C2.84719 -0.406742 5.48939 -0.406742 7.11636 1.22023L25 19.1039L42.8836 1.23324C44.5106 -0.393727 47.1528 -0.393727 48.7798 1.23324C50.4067 2.86021 50.4067 5.50241 48.7798 7.12938L48.7668 7.11636Z" fill="#D4D4D4"/>
</svg>
