<svg width="60" height="53" viewBox="0 0 60 53" fill="none" xmlns="http://www.w3.org/2000/svg">
<path d="M37.9453 52.1953C33.4688 53.4727 28.793 50.8828 27.5156 46.4062L26.8477 44.0625C26.4141 42.5391 25.6289 41.1328 24.5625 39.9609L18.5508 33.3516C17.5078 32.2031 17.5898 30.4219 18.7383 29.3789C19.8867 28.3359 21.668 28.418 22.7109 29.5664L28.7227 36.1758C30.375 37.9922 31.582 40.1602 32.25 42.5156L32.918 44.8594C33.3398 46.3477 34.8984 47.2148 36.3984 46.793C37.8984 46.3711 38.7539 44.8125 38.332 43.3125L37.6641 40.9688C36.9961 38.6367 35.9414 36.4336 34.5469 34.4648C33.9375 33.6094 33.8672 32.4844 34.3477 31.5469C34.8281 30.6094 35.7891 30.0234 36.8438 30.0234H52.5C53.5312 30.0234 54.375 29.1797 54.375 28.1484C54.375 27.3516 53.8711 26.6602 53.1562 26.3906C52.2891 26.0625 51.6328 25.3359 51.4102 24.4336C51.1875 23.5312 51.4219 22.582 52.0312 21.8906C52.3242 21.5625 52.5 21.1289 52.5 20.6484C52.5 19.7344 51.8438 18.9727 50.9766 18.8086C50.0156 18.6211 49.207 17.9531 48.8672 17.0273C48.5273 16.1016 48.6797 15.0703 49.2891 14.2969C49.5352 13.9805 49.6875 13.582 49.6875 13.1367C49.6875 12.3516 49.1953 11.6602 48.4922 11.3906C47.1445 10.8633 46.418 9.41016 46.8047 8.01562C46.8516 7.86328 46.875 7.6875 46.875 7.51172C46.875 6.48047 46.0312 5.63672 45 5.63672H33.5742C32.0977 5.63672 30.6445 6.07031 29.4141 6.89062L22.1836 11.707C20.8945 12.5742 19.1484 12.2227 18.2812 10.9219C17.4141 9.62109 17.7656 7.88672 19.0664 7.01953L26.2969 2.20312C28.4531 0.761719 30.9844 0 33.5742 0H45C49.0664 0 52.3711 3.23438 52.5 7.26563C54.2109 8.63672 55.3125 10.7461 55.3125 13.125C55.3125 13.6523 55.2539 14.1562 55.1602 14.6484C56.9648 16.0195 58.125 18.1875 58.125 20.625C58.125 21.3867 58.0078 22.125 57.7969 22.8164C59.1562 24.1992 60 26.0742 60 28.1484C60 32.2852 56.6484 35.6484 52.5 35.6484H41.6836C42.2344 36.8672 42.7031 38.1328 43.0664 39.4219L43.7344 41.7656C45.0117 46.2422 42.4219 50.918 37.9453 52.1953ZM3.75 41.2734C1.67578 41.2734 0 39.5977 0 37.5234V11.2734C0 9.19922 1.67578 7.52344 3.75 7.52344H11.25C13.3242 7.52344 15 9.19922 15 11.2734V37.5234C15 39.5977 13.3242 41.2734 11.25 41.2734H3.75Z" fill="url(#paint0_linear_362_1334)"/>
<defs>
<linearGradient id="paint0_linear_362_1334" x1="2.80393e-08" y1="26.6667" x2="60" y2="26.6667" gradientUnits="userSpaceOnUse">
<stop stop-color="#FE0000"/>
<stop offset="1" stop-color="white"/>
</linearGradient>
</defs>
</svg>
