<svg width="current" height="current" viewBox="0 0 60 53" fill="none" xmlns="http://www.w3.org/2000/svg">
<path d="M37.9453 0.325973C33.4688 -0.951371 28.793 1.63847 27.5156 6.11504L26.8477 8.45879C26.4141 9.98222 25.6289 11.3885 24.5625 12.5603L18.5508 19.1697C17.5078 20.3182 17.5898 22.0994 18.7383 23.1424C19.8867 24.1853 21.668 24.1033 22.7109 22.9549L28.7227 16.3455C30.375 14.5291 31.582 12.3611 32.25 10.0057L32.918 7.66191C33.3398 6.17363 34.8984 5.30644 36.3984 5.72832C37.8984 6.15019 38.7539 7.70879 38.332 9.20879L37.6641 11.5525C36.9961 13.8846 35.9414 16.0877 34.5469 18.0564C33.9375 18.9119 33.8672 20.0369 34.3477 20.9744C34.8281 21.9119 35.7891 22.4978 36.8438 22.4978H52.5C53.5312 22.4978 54.375 23.3416 54.375 24.3728C54.375 25.1697 53.8711 25.8611 53.1562 26.1307C52.2891 26.4588 51.6328 27.1854 51.4102 28.0877C51.1875 28.99 51.4219 29.9393 52.0312 30.6307C52.3242 30.9588 52.5 31.3924 52.5 31.8728C52.5 32.7869 51.8438 33.5486 50.9766 33.7127C50.0156 33.9002 49.207 34.5682 48.8672 35.4822C48.5273 36.3963 48.6797 37.4393 49.2891 38.2127C49.5352 38.5291 49.6875 38.9275 49.6875 39.3728C49.6875 40.158 49.1953 40.8494 48.4922 41.1189C47.1445 41.6463 46.418 43.0994 46.8047 44.4939C46.8516 44.6463 46.875 44.8221 46.875 44.9978C46.875 46.0291 46.0312 46.8728 45 46.8728H33.5742C32.0977 46.8728 30.6445 46.4393 29.4141 45.6189L22.1836 40.8025C20.8945 39.9353 19.1484 40.2869 18.2812 41.5877C17.4141 42.8885 17.7656 44.6228 19.0664 45.49L26.2969 50.3064C28.4531 51.7478 30.9844 52.5096 33.5742 52.5096H45C49.0664 52.5096 52.3711 49.2752 52.5 45.2439C54.2109 43.8728 55.3125 41.7635 55.3125 39.3846C55.3125 38.8572 55.2539 38.3533 55.1602 37.8611C56.9648 36.49 58.125 34.3221 58.125 31.8846C58.125 31.1228 58.0078 30.3846 57.7969 29.6932C59.1562 28.3221 60 26.4471 60 24.3728C60 20.2361 56.6484 16.8728 52.5 16.8728H41.6836C42.2344 15.6541 42.7031 14.3885 43.0664 13.0994L43.7344 10.7557C45.0117 6.2791 42.4219 1.60332 37.9453 0.325973ZM3.75 18.7478C1.67578 18.7478 0 20.4236 0 22.4978V48.7478C0 50.8221 1.67578 52.4978 3.75 52.4978H11.25C13.3242 52.4978 15 50.8221 15 48.7478V22.4978C15 20.4236 13.3242 18.7478 11.25 18.7478H3.75Z" fill="url(#paint0_linear_362_1226)"/>
<defs>
<linearGradient id="paint0_linear_362_1226" x1="-1.26537e-07" y1="26.4" x2="60" y2="26.4" gradientUnits="userSpaceOnUse">
<stop stop-color="#7058FF"/>
<stop offset="1" stop-color="white"/>
</linearGradient>
</defs>
</svg>
